<?xml version="1.0" encoding="utf-8"?>
<!-- Generator: Adobe Illustrator 19.2.1, SVG Export Plug-In . SVG Version: 6.00 Build 0)  -->
<svg version="1.1" id="Layer_1" xmlns="http://www.w3.org/2000/svg" xmlns:xlink="http://www.w3.org/1999/xlink" x="0px" y="0px"
	 viewBox="0 0 376 96" style="enable-background:new 0 0 376 96;" xml:space="preserve">
<style type="text/css">
	.Arched_x0020_Green{fill:url(#SVGID_1_);stroke:#FFFFFF;stroke-width:0.25;stroke-miterlimit:1;}
	.st0{fill:#5F5E5E;}
	.st1{fill:#A50343;}
</style>
<linearGradient id="SVGID_1_" gradientUnits="userSpaceOnUse" x1="-296.25" y1="440.5313" x2="-295.5429" y2="439.8242">
	<stop  offset="0" style="stop-color:#1DA238"/>
	<stop  offset="0.9831" style="stop-color:#24391D"/>
</linearGradient>
<g>
	<g>
		<path class="st0" d="M5.8,60.4c-0.4-0.3-0.9-0.4-1.5-0.4c-0.5,0-0.9,0.1-1.3,0.3c-0.3,0.2-0.6,0.4-0.9,0.7
			c-0.2,0.3-0.4,0.7-0.5,1.1c-0.1,0.4-0.2,0.8-0.2,1.2c0,0.5,0.1,0.9,0.2,1.3c0.1,0.4,0.3,0.8,0.5,1.1C2.4,66,2.7,66.2,3,66.4
			c0.4,0.2,0.8,0.3,1.3,0.3c0.4,0,0.7-0.1,1-0.2C5.5,66.4,5.8,66.2,6,66c0.2-0.2,0.4-0.5,0.5-0.7c0.1-0.3,0.2-0.6,0.2-0.9h1.1
			c-0.1,1-0.5,1.8-1.1,2.4c-0.6,0.6-1.4,0.9-2.5,0.9c-0.6,0-1.2-0.1-1.7-0.3c-0.5-0.2-0.9-0.5-1.2-0.9C1,66,0.8,65.5,0.7,65
			c-0.2-0.5-0.2-1.1-0.2-1.7c0-0.6,0.1-1.2,0.2-1.7c0.2-0.5,0.4-1,0.7-1.4c0.3-0.4,0.7-0.7,1.2-0.9c0.5-0.2,1-0.3,1.7-0.3
			c0.4,0,0.8,0.1,1.2,0.2c0.4,0.1,0.7,0.3,1,0.5c0.3,0.2,0.5,0.5,0.7,0.8c0.2,0.3,0.3,0.7,0.4,1.1H6.6C6.5,61.1,6.2,60.7,5.8,60.4z"
			/>
		<path class="st0" d="M16.1,59.2v0.9h-4.6v2.6h4.3v0.9h-4.3v2.8h4.6v0.9h-5.7v-8.2H16.1z"/>
		<path class="st0" d="M20,59.2l4.3,6.6h0v-6.6h1v8.2h-1.2l-4.3-6.6h0v6.6h-1v-8.2H20z"/>
		<path class="st0" d="M27.6,60.1v-0.9h6.5v0.9h-2.7v7.3h-1.1v-7.3H27.6z"/>
		<path class="st0" d="M40.3,59.2c0.8,0,1.4,0.2,1.8,0.6c0.4,0.4,0.7,0.9,0.7,1.6c0,0.5-0.1,0.9-0.3,1.3c-0.2,0.4-0.6,0.6-1.1,0.8v0
			c0.2,0,0.4,0.1,0.6,0.2c0.2,0.1,0.3,0.2,0.4,0.4c0.1,0.1,0.2,0.3,0.2,0.5c0,0.2,0.1,0.4,0.1,0.6c0,0.2,0,0.4,0,0.6
			c0,0.2,0,0.4,0.1,0.6c0,0.2,0.1,0.4,0.1,0.6c0.1,0.2,0.1,0.3,0.3,0.5h-1.2c-0.1-0.1-0.1-0.2-0.2-0.3c0-0.1,0-0.3-0.1-0.5
			c0-0.2,0-0.4,0-0.6c0-0.2,0-0.4-0.1-0.6c0-0.2-0.1-0.4-0.1-0.6c0-0.2-0.1-0.3-0.2-0.5c-0.1-0.1-0.2-0.2-0.4-0.3
			c-0.2-0.1-0.4-0.1-0.6-0.1h-2.7v3.5h-1.1v-8.2H40.3z M40.5,62.9c0.2,0,0.4-0.1,0.6-0.2c0.2-0.1,0.3-0.3,0.4-0.4
			c0.1-0.2,0.2-0.4,0.2-0.7c0-0.4-0.1-0.8-0.3-1c-0.2-0.3-0.6-0.4-1.1-0.4h-2.7V63h2.3C40.1,63,40.3,63,40.5,62.9z"/>
		<path class="st0" d="M49.1,59.2l3.2,8.2h-1.2l-0.9-2.5h-3.5l-0.9,2.5h-1.1l3.2-8.2H49.1z M49.9,64l-1.4-3.8h0L47.1,64H49.9z"/>
		<path class="st0" d="M55.6,59.2v7.3h4.3v0.9h-5.4v-8.2H55.6z"/>
		<path class="st0" d="M72.4,59.2v0.9h-4.6v2.6h4.3v0.9h-4.3v2.8h4.6v0.9h-5.7v-8.2H72.4z"/>
		<path class="st0" d="M78.6,59.2l3.2,8.2h-1.2l-0.9-2.5h-3.5l-0.9,2.5h-1.1l3.2-8.2H78.6z M79.3,64L78,60.2h0L76.6,64H79.3z"/>
		<path class="st0" d="M88.1,60.3c-0.4-0.3-0.8-0.4-1.4-0.4c-0.2,0-0.5,0-0.7,0.1c-0.2,0-0.4,0.1-0.6,0.2c-0.2,0.1-0.3,0.3-0.4,0.4
			c-0.1,0.2-0.2,0.4-0.2,0.7c0,0.3,0.1,0.5,0.2,0.6c0.1,0.2,0.3,0.3,0.6,0.4c0.2,0.1,0.5,0.2,0.8,0.2c0.3,0.1,0.6,0.1,1,0.2
			c0.3,0.1,0.6,0.2,1,0.3c0.3,0.1,0.6,0.2,0.8,0.4c0.2,0.2,0.4,0.4,0.6,0.7c0.1,0.3,0.2,0.6,0.2,1c0,0.4-0.1,0.8-0.3,1.1
			c-0.2,0.3-0.4,0.6-0.7,0.8c-0.3,0.2-0.6,0.3-1,0.4c-0.4,0.1-0.8,0.1-1.1,0.1c-0.5,0-0.9-0.1-1.3-0.2c-0.4-0.1-0.8-0.3-1.1-0.5
			c-0.3-0.2-0.6-0.5-0.7-0.9c-0.2-0.4-0.3-0.8-0.3-1.3h1c0,0.3,0.1,0.6,0.2,0.9c0.1,0.2,0.3,0.5,0.5,0.6c0.2,0.2,0.5,0.3,0.8,0.4
			c0.3,0.1,0.6,0.1,0.9,0.1c0.2,0,0.5,0,0.7-0.1c0.2,0,0.5-0.1,0.7-0.2c0.2-0.1,0.4-0.3,0.5-0.4c0.1-0.2,0.2-0.4,0.2-0.7
			c0-0.3-0.1-0.5-0.2-0.7c-0.2-0.2-0.4-0.3-0.6-0.4c-0.2-0.1-0.5-0.2-0.8-0.3c-0.3-0.1-0.6-0.1-1-0.2c-0.3-0.1-0.6-0.2-1-0.3
			c-0.3-0.1-0.6-0.2-0.8-0.4c-0.2-0.2-0.4-0.4-0.6-0.6c-0.2-0.3-0.2-0.6-0.2-0.9c0-0.4,0.1-0.8,0.3-1.1c0.2-0.3,0.4-0.5,0.7-0.7
			c0.3-0.2,0.6-0.3,0.9-0.4c0.4-0.1,0.7-0.1,1.1-0.1c0.4,0,0.8,0.1,1.2,0.2c0.4,0.1,0.7,0.3,0.9,0.5c0.3,0.2,0.5,0.5,0.6,0.8
			c0.2,0.3,0.2,0.7,0.3,1.2h-1C88.6,61,88.4,60.6,88.1,60.3z"/>
		<path class="st0" d="M91.9,60.1v-0.9h6.5v0.9h-2.7v7.3h-1.1v-7.3H91.9z"/>
		<path class="st0" d="M106.4,59.2v0.9h-4.6v2.6h4.3v0.9h-4.3v2.8h4.6v0.9h-5.7v-8.2H106.4z"/>
		<path class="st0" d="M112.9,59.2c0.8,0,1.4,0.2,1.8,0.6c0.4,0.4,0.7,0.9,0.7,1.6c0,0.5-0.1,0.9-0.3,1.3c-0.2,0.4-0.6,0.6-1.1,0.8
			v0c0.2,0,0.4,0.1,0.6,0.2c0.1,0.1,0.3,0.2,0.4,0.4c0.1,0.1,0.2,0.3,0.2,0.5c0,0.2,0.1,0.4,0.1,0.6c0,0.2,0,0.4,0,0.6
			c0,0.2,0,0.4,0.1,0.6c0,0.2,0.1,0.4,0.1,0.6c0.1,0.2,0.1,0.3,0.3,0.5h-1.2c-0.1-0.1-0.1-0.2-0.2-0.3c0-0.1,0-0.3-0.1-0.5
			c0-0.2,0-0.4,0-0.6c0-0.2,0-0.4-0.1-0.6c0-0.2-0.1-0.4-0.1-0.6c0-0.2-0.1-0.3-0.2-0.5c-0.1-0.1-0.2-0.2-0.4-0.3
			c-0.2-0.1-0.4-0.1-0.6-0.1h-2.7v3.5h-1.1v-8.2H112.9z M113.2,62.9c0.2,0,0.4-0.1,0.6-0.2c0.2-0.1,0.3-0.3,0.4-0.4
			c0.1-0.2,0.2-0.4,0.2-0.7c0-0.4-0.1-0.8-0.3-1c-0.2-0.3-0.6-0.4-1.1-0.4h-2.7V63h2.3C112.7,63,112.9,63,113.2,62.9z"/>
		<path class="st0" d="M119.5,59.2l4.3,6.6h0v-6.6h1v8.2h-1.2l-4.3-6.6h0v6.6h-1v-8.2H119.5z"/>
		<path class="st0" d="M138.2,59.2v0.9h-4.6v2.6h4.3v0.9h-4.3v2.8h4.6v0.9h-5.7v-8.2H138.2z"/>
		<path class="st0" d="M146.6,66.8c-0.6,0.5-1.4,0.8-2.4,0.8c-1.1,0-1.9-0.3-2.5-0.7c-0.6-0.5-0.9-1.3-0.9-2.4v-5.2h1.1v5.2
			c0,0.7,0.2,1.3,0.6,1.7c0.4,0.4,1,0.6,1.7,0.6c0.7,0,1.2-0.2,1.6-0.6c0.4-0.4,0.5-0.9,0.5-1.7v-5.2h1.1v5.2
			C147.4,65.5,147.2,66.3,146.6,66.8z"/>
		<path class="st0" d="M154.4,59.2c0.8,0,1.4,0.2,1.8,0.6c0.4,0.4,0.7,0.9,0.7,1.6c0,0.5-0.1,0.9-0.3,1.3c-0.2,0.4-0.6,0.6-1.1,0.8
			v0c0.2,0,0.4,0.1,0.6,0.2c0.1,0.1,0.3,0.2,0.4,0.4c0.1,0.1,0.2,0.3,0.2,0.5c0,0.2,0.1,0.4,0.1,0.6c0,0.2,0,0.4,0,0.6
			c0,0.2,0,0.4,0.1,0.6c0,0.2,0.1,0.4,0.1,0.6c0.1,0.2,0.1,0.3,0.3,0.5H156c-0.1-0.1-0.1-0.2-0.2-0.3c0-0.1,0-0.3-0.1-0.5
			c0-0.2,0-0.4,0-0.6c0-0.2,0-0.4-0.1-0.6c0-0.2-0.1-0.4-0.1-0.6c0-0.2-0.1-0.3-0.2-0.5c-0.1-0.1-0.2-0.2-0.4-0.3
			c-0.2-0.1-0.4-0.1-0.6-0.1h-2.7v3.5h-1.1v-8.2H154.4z M154.6,62.9c0.2,0,0.4-0.1,0.6-0.2c0.2-0.1,0.3-0.3,0.4-0.4
			c0.1-0.2,0.2-0.4,0.2-0.7c0-0.4-0.1-0.8-0.3-1c-0.2-0.3-0.6-0.4-1.1-0.4h-2.7V63h2.3C154.2,63,154.4,63,154.6,62.9z"/>
		<path class="st0" d="M159.6,61.7c0.2-0.5,0.4-1,0.7-1.4c0.3-0.4,0.7-0.7,1.2-1c0.5-0.2,1.1-0.4,1.7-0.4c0.6,0,1.2,0.1,1.7,0.4
			c0.5,0.2,0.9,0.6,1.2,1c0.3,0.4,0.6,0.9,0.7,1.4c0.2,0.5,0.2,1.1,0.2,1.6c0,0.6-0.1,1.1-0.2,1.6c-0.2,0.5-0.4,1-0.7,1.4
			c-0.3,0.4-0.7,0.7-1.2,0.9c-0.5,0.2-1.1,0.3-1.7,0.3c-0.7,0-1.2-0.1-1.7-0.3c-0.5-0.2-0.9-0.5-1.2-0.9c-0.3-0.4-0.6-0.9-0.7-1.4
			c-0.2-0.5-0.2-1.1-0.2-1.6C159.3,62.7,159.4,62.2,159.6,61.7z M160.6,64.5c0.1,0.4,0.3,0.8,0.5,1.1c0.2,0.3,0.5,0.6,0.9,0.8
			c0.4,0.2,0.8,0.3,1.3,0.3c0.5,0,0.9-0.1,1.3-0.3c0.4-0.2,0.7-0.5,0.9-0.8c0.2-0.3,0.4-0.7,0.5-1.1c0.1-0.4,0.2-0.8,0.2-1.2
			c0-0.4-0.1-0.8-0.2-1.2c-0.1-0.4-0.3-0.8-0.5-1.1c-0.2-0.3-0.5-0.6-0.9-0.8c-0.4-0.2-0.8-0.3-1.3-0.3c-0.5,0-0.9,0.1-1.3,0.3
			c-0.4,0.2-0.7,0.5-0.9,0.8c-0.2,0.3-0.4,0.7-0.5,1.1c-0.1,0.4-0.2,0.8-0.2,1.2C160.4,63.7,160.5,64.1,160.6,64.5z"/>
		<path class="st0" d="M173.4,59.2c0.8,0,1.4,0.2,1.9,0.6c0.4,0.4,0.6,1,0.6,1.8c0,0.8-0.2,1.4-0.6,1.8c-0.4,0.4-1,0.6-1.9,0.6h-2.5
			v3.3h-1.1v-8.2H173.4z M173.1,63.1c0.6,0,1.1-0.1,1.4-0.4c0.3-0.3,0.4-0.6,0.4-1.1c0-0.5-0.1-0.9-0.4-1.1
			c-0.3-0.3-0.7-0.4-1.4-0.4h-2.1v3H173.1z"/>
		<path class="st0" d="M184.3,59.2v0.9h-4.6v2.6h4.2v0.9h-4.2v2.8h4.6v0.9h-5.7v-8.2H184.3z"/>
		<path class="st0" d="M190.5,59.2l3.2,8.2h-1.2l-0.9-2.5h-3.5l-0.9,2.5h-1.1l3.2-8.2H190.5z M191.2,64l-1.4-3.8h0l-1.4,3.8H191.2z"
			/>
		<path class="st0" d="M197,59.2l4.3,6.6h0v-6.6h1v8.2h-1.2l-4.3-6.6h0v6.6h-1v-8.2H197z"/>
		<path class="st0" d="M105.2,83.5c-0.5,0.2-1,0.3-1.4,0.3c-0.6,0-1.2-0.1-1.6-0.3c-0.5-0.2-0.9-0.5-1.2-0.9
			c-0.3-0.4-0.6-0.8-0.8-1.3c-0.2-0.5-0.3-1-0.3-1.5c0-0.6,0.1-1.2,0.2-1.7c0.2-0.5,0.4-1,0.7-1.4c0.3-0.4,0.7-0.7,1.2-1
			c0.5-0.2,1.1-0.4,1.7-0.4c0.4,0,0.9,0.1,1.3,0.2c0.4,0.1,0.7,0.3,1.1,0.5c0.3,0.2,0.6,0.5,0.8,0.8c0.2,0.3,0.4,0.7,0.4,1.2h-1.1
			c-0.1-0.3-0.2-0.6-0.3-0.8c-0.1-0.2-0.3-0.4-0.5-0.6c-0.2-0.1-0.5-0.3-0.7-0.3c-0.3-0.1-0.6-0.1-0.9-0.1c-0.5,0-0.9,0.1-1.3,0.3
			c-0.4,0.2-0.6,0.5-0.9,0.8c-0.2,0.3-0.4,0.7-0.5,1.1c-0.1,0.4-0.2,0.8-0.2,1.3c0,0.4,0.1,0.8,0.2,1.2c0.1,0.4,0.3,0.7,0.5,1
			c0.2,0.3,0.5,0.5,0.9,0.7c0.4,0.2,0.7,0.3,1.2,0.3c0.4,0,0.8-0.1,1.1-0.2c0.3-0.1,0.6-0.3,0.8-0.6c0.2-0.2,0.4-0.5,0.5-0.9
			c0.1-0.3,0.2-0.7,0.1-1h-2.6v-0.9h3.6v4.3h-0.7l-0.3-1C106.1,83,105.7,83.3,105.2,83.5z"/>
		<path class="st0" d="M113.8,75.4l3.2,8.2h-1.2l-0.9-2.5h-3.5l-0.9,2.5h-1.1l3.2-8.2H113.8z M114.6,80.2l-1.4-3.8h0l-1.4,3.8H114.6
			z"/>
		<path class="st0" d="M123.3,76.5c-0.4-0.3-0.8-0.4-1.4-0.4c-0.2,0-0.5,0-0.7,0.1c-0.2,0-0.4,0.1-0.6,0.2c-0.2,0.1-0.3,0.2-0.4,0.4
			c-0.1,0.2-0.2,0.4-0.2,0.7c0,0.3,0.1,0.5,0.2,0.6c0.2,0.2,0.3,0.3,0.6,0.4c0.2,0.1,0.5,0.2,0.8,0.2c0.3,0.1,0.6,0.1,1,0.2
			c0.3,0.1,0.6,0.2,1,0.3c0.3,0.1,0.6,0.2,0.8,0.4c0.3,0.2,0.4,0.4,0.6,0.7c0.1,0.3,0.2,0.6,0.2,1c0,0.4-0.1,0.8-0.3,1.1
			c-0.2,0.3-0.4,0.6-0.7,0.8c-0.3,0.2-0.6,0.3-1,0.4c-0.4,0.1-0.8,0.1-1.1,0.1c-0.5,0-0.9-0.1-1.3-0.2c-0.4-0.1-0.8-0.3-1.1-0.5
			c-0.3-0.2-0.6-0.5-0.7-0.9c-0.2-0.4-0.3-0.8-0.3-1.3h1c0,0.3,0.1,0.6,0.2,0.9c0.1,0.2,0.3,0.5,0.5,0.6c0.2,0.2,0.5,0.3,0.8,0.4
			c0.3,0.1,0.6,0.1,0.9,0.1c0.2,0,0.5,0,0.7-0.1c0.3,0,0.5-0.1,0.7-0.2c0.2-0.1,0.4-0.3,0.5-0.5c0.1-0.2,0.2-0.4,0.2-0.7
			c0-0.3-0.1-0.5-0.2-0.7c-0.1-0.2-0.3-0.3-0.6-0.4c-0.2-0.1-0.5-0.2-0.8-0.3c-0.3-0.1-0.6-0.1-1-0.2c-0.3-0.1-0.6-0.2-1-0.3
			c-0.3-0.1-0.6-0.2-0.8-0.4c-0.2-0.2-0.4-0.4-0.6-0.6c-0.2-0.2-0.2-0.6-0.2-0.9c0-0.4,0.1-0.8,0.3-1.1c0.2-0.3,0.4-0.5,0.7-0.7
			c0.3-0.2,0.6-0.3,1-0.4c0.4-0.1,0.7-0.1,1.1-0.1c0.4,0,0.8,0,1.2,0.1c0.4,0.1,0.7,0.3,0.9,0.5c0.3,0.2,0.5,0.5,0.6,0.8
			c0.2,0.3,0.2,0.7,0.3,1.2h-1C123.9,77.2,123.6,76.8,123.3,76.5z"/>
		<path class="st0" d="M138.2,75.4v0.9h-4.6v2.6h4.2v0.9h-4.2v2.8h4.6v0.9h-5.7v-8.2H138.2z"/>
		<path class="st0" d="M140.2,75.4h1.3l2,3.2l2.1-3.2h1.2l-2.7,4l2.9,4.2h-1.3l-2.2-3.4l-2.3,3.4H140l2.8-4.2L140.2,75.4z"/>
		<path class="st0" d="M154.2,76.6c-0.4-0.3-0.9-0.4-1.5-0.4c-0.5,0-0.9,0.1-1.3,0.3c-0.3,0.2-0.6,0.4-0.9,0.7
			c-0.2,0.3-0.4,0.7-0.5,1.1c-0.1,0.4-0.2,0.8-0.2,1.2c0,0.5,0.1,0.9,0.2,1.3c0.1,0.4,0.3,0.8,0.5,1.1c0.2,0.3,0.5,0.6,0.9,0.7
			c0.4,0.2,0.8,0.3,1.3,0.3c0.4,0,0.7-0.1,1-0.2c0.3-0.1,0.5-0.3,0.7-0.5c0.2-0.2,0.4-0.5,0.5-0.7c0.1-0.3,0.2-0.6,0.2-0.9h1.1
			c-0.1,1-0.5,1.8-1.1,2.4c-0.6,0.6-1.4,0.9-2.5,0.9c-0.6,0-1.2-0.1-1.7-0.3c-0.5-0.2-0.9-0.5-1.2-0.9c-0.3-0.4-0.6-0.8-0.7-1.4
			c-0.2-0.5-0.2-1.1-0.2-1.7c0-0.6,0.1-1.2,0.2-1.7c0.2-0.5,0.4-1,0.7-1.4c0.3-0.4,0.7-0.7,1.2-0.9c0.5-0.2,1-0.3,1.7-0.3
			c0.4,0,0.8,0.1,1.2,0.2c0.4,0.1,0.7,0.3,1,0.5c0.3,0.2,0.5,0.5,0.7,0.8c0.2,0.3,0.3,0.7,0.4,1.2H155
			C154.9,77.3,154.7,76.9,154.2,76.6z"/>
		<path class="st0" d="M160,75.4v3.5h4.3v-3.5h1.1v8.2h-1.1v-3.7H160v3.7h-1.1v-8.2H160z"/>
		<path class="st0" d="M172,75.4l3.2,8.2H174l-0.9-2.5h-3.5l-0.9,2.5h-1.1l3.2-8.2H172z M172.8,80.2l-1.4-3.8h0l-1.4,3.8H172.8z"/>
		<path class="st0" d="M178.5,75.4l4.3,6.6h0v-6.6h1v8.2h-1.2l-4.3-6.6h0v6.6h-1v-8.2H178.5z"/>
		<path class="st0" d="M192,83.5c-0.5,0.2-0.9,0.3-1.4,0.3c-0.6,0-1.2-0.1-1.6-0.3c-0.5-0.2-0.9-0.5-1.2-0.9
			c-0.3-0.4-0.6-0.8-0.8-1.3c-0.2-0.5-0.3-1-0.3-1.5c0-0.6,0.1-1.2,0.2-1.7c0.2-0.5,0.4-1,0.7-1.4c0.3-0.4,0.7-0.7,1.2-1
			c0.5-0.2,1.1-0.4,1.7-0.4c0.4,0,0.9,0.1,1.3,0.2c0.4,0.1,0.7,0.3,1,0.5c0.3,0.2,0.6,0.5,0.8,0.8c0.2,0.3,0.4,0.7,0.4,1.2H193
			c-0.1-0.3-0.2-0.6-0.3-0.8c-0.1-0.2-0.3-0.4-0.5-0.6c-0.2-0.1-0.5-0.3-0.7-0.3c-0.3-0.1-0.6-0.1-0.9-0.1c-0.5,0-0.9,0.1-1.3,0.3
			c-0.4,0.2-0.6,0.5-0.9,0.8c-0.2,0.3-0.4,0.7-0.5,1.1c-0.1,0.4-0.2,0.8-0.2,1.3c0,0.4,0.1,0.8,0.2,1.2c0.1,0.4,0.3,0.7,0.5,1
			c0.2,0.3,0.5,0.5,0.9,0.7c0.4,0.2,0.7,0.3,1.2,0.3c0.4,0,0.8-0.1,1.1-0.2c0.3-0.1,0.6-0.3,0.8-0.6c0.2-0.2,0.4-0.5,0.5-0.9
			c0.1-0.3,0.2-0.7,0.1-1h-2.6v-0.9h3.6v4.3h-0.7l-0.3-1C192.8,83,192.4,83.3,192,83.5z"/>
		<path class="st0" d="M202.8,75.4v0.9h-4.6v2.6h4.3v0.9h-4.3v2.8h4.6v0.9h-5.7v-8.2H202.8z"/>
	</g>
	<g>
		<path class="st0" d="M139.1,12.8v21.8c0,6.6-2.6,12.8-12.8,12.8c-2.5,0-5.4-0.4-8.4-1.6l0.5-5.3c1.9,1,5.1,2.1,7,2.1
			c7,0,7.3-5.2,7.3-9.4h-0.1c-1.2,2.1-4,3.8-7.5,3.8c-7.1,0-9.9-5.7-9.9-12.2c0-5.8,3-12.5,10.2-12.5c3.2,0,5.7,1.1,7.4,3.9h0.1
			v-3.3H139.1z M132.8,24.6c0-4.1-1.6-7.5-5.3-7.5c-4.3,0-5.6,3.9-5.6,7.7c0,3.3,1.7,7.3,5.4,7.3C131.2,32.1,132.8,28.7,132.8,24.6z
			"/>
		<path class="st0" d="M168.8,35.6c-2.3,1.3-4.9,1.9-8.3,1.9c-8,0-12.6-4.6-12.6-12.5c0-7,3.7-12.8,11.2-12.8
			c9,0,11.5,6.1,11.5,14.6h-16.7c0.3,3.9,3,6.1,6.9,6.1c3.1,0,5.7-1.1,8-2.4V35.6z M164.5,22.5c-0.2-3.1-1.6-5.7-5.1-5.7
			c-3.5,0-5.3,2.4-5.6,5.7H164.5z"/>
		<path class="st0" d="M178.4,12.8h7.4l4.7,7.9l4.6-7.9h6.7l-7.2,11.5l8.2,12.7h-7.5l-5.4-9l-5.4,9h-6.9l8.3-12.7L178.4,12.8z"/>
	</g>
	<path class="st1" d="M46,18c-1.1-0.5-2.4-0.9-4.3-0.9c-3.9,0-6.4,3.1-6.4,7.7c0,4.5,2.1,7.9,6.5,7.9c1.8,0,3.8-0.7,4.8-1.1l0.3,5.2
		c-1.8,0.6-3.7,0.8-6.3,0.8c-7.9,0-11.9-5.4-11.9-12.8c0-7,4.1-12.5,11.7-12.5c2.5,0,4.4,0.3,6.1,0.8L46,18z"/>
	<path class="st1" d="M75.5,35.6c-2.3,1.3-4.9,1.9-8.3,1.9c-8,0-12.6-4.6-12.6-12.5c0-7,3.7-12.8,11.2-12.8c9,0,11.5,6.1,11.5,14.6
		H60.5c0.3,3.9,3,6.1,6.9,6.1c3.1,0,5.7-1.1,8-2.4V35.6z M71.2,22.5c-0.2-3.1-1.6-5.7-5.1-5.7c-3.5,0-5.3,2.4-5.6,5.7H71.2z"/>
	<path class="st1" d="M105.3,35.6c-2.3,1.3-4.9,1.9-8.3,1.9c-8,0-12.6-4.6-12.6-12.5c0-7,3.7-12.8,11.2-12.8c9,0,11.5,6.1,11.5,14.6
		H90.4c0.3,3.9,3,6.1,6.9,6.1c3.1,0,5.7-1.1,8-2.4V35.6z M101.1,22.5c-0.2-3.1-1.6-5.7-5.1-5.7c-3.5,0-5.3,2.4-5.6,5.7H101.1z"/>
	<g>
		<path d="M290.3,33.5C290.3,33.5,290.3,33.5,290.3,33.5C290.3,33.5,290.3,33.5,290.3,33.5L290.3,33.5L290.3,33.5z"/>
		<path d="M290.2,62.5C290.3,62.5,290.3,62.5,290.2,62.5C290.3,62.5,290.3,62.5,290.2,62.5L290.2,62.5L290.2,62.5z"/>
		<ellipse cx="304.7" cy="48" rx="0" ry="0"/>
		<path d="M275.8,48C275.8,48,275.8,48,275.8,48C275.8,48,275.8,48,275.8,48L275.8,48L275.8,48z"/>
		<g>
			<path class="st0" d="M290.2,62.5L290.2,62.5c-7.9-0.1-14.4-6.5-14.4-14.5l-0.1,0.1l-9.4,9.4l-2.5,2.5c2.7,6.5,7.9,11.7,14.5,14.5
				l2.5-2.5L290.2,62.5z"/>
			<path class="st0" d="M290.3,33.5L290.3,33.5c7.9,0.1,14.4,6.5,14.4,14.5l0.1,0l9.4-9.4l2.5-2.5c-2.7-6.5-7.9-11.7-14.5-14.5
				l-2.5,2.5L290.3,33.5z"/>
		</g>
		<path class="st1" d="M290.3,33.5L290.3,33.5C290.3,33.5,290.3,33.5,290.3,33.5C290.3,33.5,290.3,33.5,290.3,33.5h-0.1L266.7,10
			l9.4-9.4l14.1,14.1l14.1-14.1l9.4,9.4L290.3,33.5z"/>
		<path class="st1" d="M266.7,86l9.4,9.4l14.1-14.1l14.1,14.1l9.4-9.4l-23.5-23.5l0,0c0,0,0,0,0,0c0,0,0,0,0,0l0,0L266.7,86z"/>
		<path class="st1" d="M304.8,48.1L304.8,48.1C304.7,48,304.7,48,304.8,48.1C304.7,48,304.7,48,304.8,48.1V48l23.5-23.5l9.4,9.4
			L323.6,48l14.1,14.1l-9.4,9.4L304.8,48.1z"/>
		<path class="st1" d="M342.7,48.1L342.7,48.1C342.6,48,342.6,48,342.7,48.1C342.6,48,342.6,48,342.7,48.1V48l23.5-23.5l9.4,9.4
			L361.5,48l14.1,14.1l-9.4,9.4L342.7,48.1z"/>
		<path class="st1" d="M275.7,48L275.7,48C275.8,48,275.8,48,275.7,48C275.8,48,275.8,48,275.7,48v0.1l-23.5,23.5l-9.4-9.4L256.9,48
			l-14.2-14.1l9.4-9.4L275.7,48z"/>
	</g>
</g>
</svg>