<?xml version="1.0" encoding="utf-8"?>
<!-- Generator: Adobe Illustrator 21.1.0, SVG Export Plug-In . SVG Version: 6.00 Build 0)  -->
<svg version="1.1" id="Ebene_1" xmlns="http://www.w3.org/2000/svg" xmlns:xlink="http://www.w3.org/1999/xlink" x="0px" y="0px"
	 viewBox="0 0 36.2 10.5" style="enable-background:new 0 0 36.2 10.5;" xml:space="preserve">
<style type="text/css">
	.st0{fill:none;}
	.st1{fill:#E6190F;}
</style>
<g id="BoundingBox">
	<rect x="-9.2" y="-9.7" class="st0" width="55.4" height="30"/>
</g>
<g id="eex">
	<path d="M10,5.2C10,1.4,11.5,0,14,0c2.7,0,4,1.5,4,5.2v0.7h-5.6c0.1,2.3,0.6,2.8,2.1,2.8c1,0,1.7-0.4,2.3-0.9l1.1,1.5
		c-0.9,0.7-1.9,1.2-3.3,1.2C11.5,10.5,10,9,10,5.2z M12.4,4.3h3.3c0-1.9-0.4-2.6-1.6-2.6C13,1.7,12.5,2.2,12.4,4.3z"/>
	<path d="M19.3,5.2c0-3.8,1.5-5.2,4.1-5.2c2.7,0,4,1.5,4,5.2v0.7h-5.6c0.1,2.3,0.6,2.8,2.1,2.8c1,0,1.7-0.4,2.3-0.9l1.1,1.5
		c-0.9,0.7-1.9,1.2-3.3,1.2C20.8,10.5,19.3,9,19.3,5.2z M21.8,4.3H25c0-1.9-0.4-2.6-1.6-2.6C22.4,1.7,21.9,2.2,21.8,4.3z"/>
	<path class="st1" d="M27.9,10.3L30.8,5l-2.5-4.7h2.5l1.3,2.8l1.3-2.8h2.4l-2.5,4.6l2.8,5.4l-2.5,0L32,6.7l-1.7,3.5L27.9,10.3
		L27.9,10.3z"/>
	<polygon class="st1" points="6.5,5.3 3.6,10.3 0,10.3 3,5.3 0,0.3 3.6,0.3 	"/>
</g>
</svg>
