<?xml version="1.0" encoding="utf-8"?>
<!-- Generator: Adobe Illustrator 25.0.0, SVG Export Plug-In . SVG Version: 6.00 Build 0)  -->
<svg version="1.1" id="Layer_1" xmlns="http://www.w3.org/2000/svg" xmlns:xlink="http://www.w3.org/1999/xlink" x="0px" y="0px"
	 viewBox="0 0 120 32" style="enable-background:new 0 0 120 32;" xml:space="preserve">
<style type="text/css">
	.st0{enable-background:new    ;}
	.st1{fill:#0D233F;}
</style>
<g>
	<g class="st0">
		<path class="st1" d="M47,2.3h-2.6v7h-0.9v-7h-2.6V1.5H47V2.3z"/>
		<path class="st1" d="M52.9,5.9v3.5H52V6c0-1-0.5-1.6-1.5-1.6s-1.7,0.7-1.7,1.9v3h-0.9V1.5h0.9v4l0.4-1.2c0.3-0.3,0.7-0.7,1.6-0.7
			C52.1,3.7,52.9,4.5,52.9,5.9z"/>
		<path class="st1" d="M59.4,6.9h-4.5c0.1,1.2,0.9,1.9,1.9,1.9c0.9,0,1.5-0.4,1.8-1.1l0.7,0.6c-0.5,0.9-1.5,1.3-2.5,1.3
			c-1.7,0-2.8-1.2-2.8-2.9s1.2-2.9,2.7-2.9c1.7,0,2.7,1.2,2.7,2.8C59.4,6.6,59.4,6.7,59.4,6.9z M54.9,6.2h3.5c0-1.1-0.7-1.7-1.7-1.7
			C55.8,4.4,55.1,5,54.9,6.2z"/>
		<path class="st1" d="M68.3,8.5v0.8h-5.1V1.5h5.2v0.8h-4.3V5H68v0.8h-3.9v2.8h4.2V8.5z"/>
		<path class="st1" d="M75.2,9.4h-0.9l-0.6-1.8v1c-0.3,0.5-0.8,1-1.8,1c-1.3,0-2.1-0.8-2.1-2.1V3.8h0.9v3.4c0,1,0.5,1.5,1.4,1.5
			c1,0,1.6-0.7,1.6-2.1V3.8h0.9v3.6L75.2,9.4z"/>
	</g>
	<g class="st0">
		<path class="st1" d="M79.3,3.7v0.9c-0.1,0-0.3-0.1-0.4-0.1c-1,0-1.7,0.5-1.7,2.1v2.7h-0.9V3.8h0.9v1.9l0.3-1.4
			c0.3-0.3,0.8-0.6,1.6-0.6C79,3.7,79.1,3.7,79.3,3.7z"/>
	</g>
	<g class="st0">
		<path class="st1" d="M85.4,6.6c0,1.7-1.3,2.9-3,2.9s-2.9-1.2-2.9-2.9s1.3-2.9,2.9-2.9C84.1,3.6,85.4,4.8,85.4,6.6z M80.4,6.6
			c0,1.3,0.9,2.1,2,2.1c1.2,0,2.1-0.8,2.1-2.1s-0.9-2.1-2.1-2.1C81.3,4.5,80.4,5.3,80.4,6.6z"/>
		<path class="st1" d="M92.4,6.6c0,1.6-1.1,2.9-2.8,2.9c-0.9,0-1.4-0.3-1.7-0.6l-0.4-1.4v4.1h-0.9V3.8h0.9v0.9c0.5-0.6,1.2-1,2.1-1
			C91.3,3.6,92.4,4.9,92.4,6.6z M91.5,6.6c0-1.2-0.7-2.1-2-2.1c-1.3,0-2.1,1-2.1,2.1c0,1.2,0.8,2.1,2.1,2.1S91.5,7.8,91.5,6.6z"/>
		<path class="st1" d="M98.6,6.9h-4.5C94.2,8.1,95,8.8,96,8.8c0.9,0,1.5-0.4,1.8-1.1l0.7,0.6C98,9.2,97,9.6,96,9.6
			c-1.7,0-2.8-1.2-2.8-2.9s1.2-2.9,2.7-2.9c1.7,0,2.7,1.2,2.7,2.8C98.6,6.6,98.6,6.7,98.6,6.9z M94.1,6.2h3.5c0-1.1-0.7-1.7-1.7-1.7
			C95.1,4.4,94.3,5,94.1,6.2z"/>
		<path class="st1" d="M105.3,9.4l-0.7-2.1l-0.1,1.3c-0.4,0.5-1.1,1-2.1,1c-1.7,0-2.8-1.3-2.8-2.9s1.1-2.9,2.8-2.9
			c1,0,1.7,0.4,2.2,1.1V3.8h0.9V7l0.8,2.4H105.3z M104.5,6.6c0-1.2-0.8-2.1-2-2.1c-1.3,0-2,1-2,2.1c0,1.2,0.7,2.1,2,2.1
			C103.7,8.7,104.5,7.8,104.5,6.6z"/>
		<path class="st1" d="M112.1,5.9v3.5h-0.9V6c0-1-0.5-1.6-1.4-1.6c-1,0-1.7,0.7-1.7,1.9v3h-0.9V3.8h0.9v1.7l0.3-1.2
			c0.3-0.3,0.7-0.6,1.6-0.6C111.3,3.7,112.1,4.5,112.1,5.9z"/>
	</g>
	<g class="st0">
		<path class="st1" d="M49.5,12.2v7.8h-0.9v-6.7l-2.5,6.7h-1l-2.6-6.6v6.6h-0.9v-7.8h1.3l2.7,6.8l2.7-6.8H49.5z"/>
		<path class="st1" d="M56.8,17.4c0,1.7-1.3,2.9-3,2.9c-1.7,0-2.9-1.2-2.9-2.9s1.3-2.9,2.9-2.9C55.5,14.3,56.8,15.5,56.8,17.4z
			 M51.8,17.4c0,1.3,0.9,2.1,2,2.1c1.2,0,2.1-0.8,2.1-2.1c0-1.3-0.9-2.1-2.1-2.1C52.6,15.1,51.8,16.1,51.8,17.4z"/>
		<path class="st1" d="M62.8,16.7v3.4h-0.9v-3.3c0-1-0.5-1.6-1.4-1.6c-1,0-1.7,0.7-1.7,1.9v3h-0.9v-5.5h0.9v1.7l0.3-1.2
			c0.3-0.3,0.7-0.6,1.6-0.6C62,14.3,62.8,15.2,62.8,16.7z"/>
	</g>
	<g class="st0">
		<path class="st1" d="M69.3,17.6h-4.5c0.1,1.2,0.9,1.9,1.9,1.9c0.9,0,1.5-0.4,1.8-1.1l0.7,0.6c-0.5,0.9-1.5,1.3-2.5,1.3
			c-1.7,0-2.8-1.2-2.8-2.9s1.2-2.9,2.7-2.9c1.7,0,2.7,1.2,2.7,2.8C69.3,17.4,69.3,17.5,69.3,17.6z M64.8,16.9h3.5
			c0-1.1-0.7-1.7-1.7-1.7C65.7,15.1,65,15.7,64.8,16.9z"/>
	</g>
	<g class="st0">
		<path class="st1" d="M75.5,14.5l-3.3,7.8h-0.9l1-2.4l-2.4-5.5h1l1.9,4.4l1.8-4.4h0.9V14.5z"/>
		<path class="st1" d="M86.8,12.2v7.8h-0.9v-6.7l-2.5,6.7h-1l-2.6-6.6v6.6h-0.9v-7.8h1.3l2.7,6.8l2.7-6.8H86.8z"/>
		<path class="st1" d="M93.9,20.1L93.2,18l-0.1,1.3c-0.4,0.5-1.1,1-2.1,1c-1.7,0-2.8-1.3-2.8-2.9s1.1-2.9,2.8-2.9
			c1,0,1.7,0.4,2.2,1.1v-0.9h0.9v3.2l0.8,2.4h-1V20.1z M93.2,17.4c0-1.2-0.8-2.1-2-2.1c-1.3,0-2,1-2,2.1c0,1.2,0.7,2.1,2,2.1
			C92.4,19.5,93.2,18.5,93.2,17.4z"/>
		<path class="st1" d="M98.8,14.4v0.9c-0.1,0-0.3-0.1-0.4-0.1c-1,0-1.7,0.5-1.7,2.1v2.7h-0.9v-5.5h0.9v1.9L97,15
			c0.3-0.3,0.8-0.6,1.6-0.6C98.6,14.4,98.7,14.4,98.8,14.4z"/>
	</g>
	<g class="st0">
		<path class="st1" d="M101.6,17.4l-0.9,0.9v1.8h-0.9v-7.8h0.9V18l0.3-1.1l2.3-2.2h1.2l-2.3,2.2l2.5,3.3h-1.1L101.6,17.4z"/>
	</g>
	<g class="st0">
		<path class="st1" d="M110.5,17.6H106c0.1,1.2,0.9,1.9,1.9,1.9c0.9,0,1.5-0.4,1.8-1.1l0.7,0.6c-0.5,0.9-1.5,1.3-2.5,1.3
			c-1.7,0-2.8-1.2-2.8-2.9s1.2-2.9,2.7-2.9c1.7,0,2.7,1.2,2.7,2.8C110.5,17.4,110.5,17.5,110.5,17.6z M106,16.9h3.5
			c0-1.1-0.7-1.7-1.7-1.7C106.9,15.1,106.1,15.7,106,16.9z"/>
		<path class="st1" d="M113,15.3v3.2c0,0.8,0.3,0.9,0.9,0.9c0.1,0,0.4,0,0.5-0.1v0.8c-0.2,0.1-0.5,0.1-0.7,0.1
			c-1.1,0-1.7-0.4-1.7-1.6v-3.3h-1v-0.8h1v-1.4l0.9-0.7v2h1.6v0.8H113V15.3z"/>
		<path class="st1" d="M120,15.9l-0.8,0.3c-0.1-0.7-0.6-1.2-1.5-1.2c-0.8,0-1.3,0.4-1.3,0.9c0,1.4,3.6,0.4,3.6,2.6
			c0,1-0.9,1.7-2.3,1.7c-1.4,0-2.3-0.7-2.5-1.7l0.9-0.4c0,0.9,0.6,1.4,1.6,1.4c0.8,0,1.3-0.3,1.3-0.9c0-1.4-3.6-0.4-3.6-2.6
			c0-1,1-1.7,2.2-1.7C119,14.3,119.9,15,120,15.9z"/>
	</g>
	<g class="st0">
		<path class="st1" d="M42.4,23v7.8h-0.9V23C41.5,23,42.4,23,42.4,23z"/>
		<path class="st1" d="M49.1,27.3v3.5h-0.9v-3.3c0-1-0.5-1.6-1.4-1.6c-1,0-1.7,0.7-1.7,1.9v3h-0.9v-5.5h0.9V27l0.3-1.2
			c0.3-0.3,0.7-0.6,1.6-0.6C48.3,25.1,49.1,25.9,49.1,27.3z"/>
		<path class="st1" d="M54.8,26.7L54,27c-0.1-0.7-0.6-1.2-1.5-1.2c-0.8,0-1.3,0.4-1.3,0.9c0,1.4,3.6,0.4,3.6,2.6
			c0,1-0.9,1.7-2.3,1.7s-2.3-0.7-2.5-1.7l0.9-0.4c0,0.9,0.6,1.4,1.6,1.4c0.8,0,1.3-0.3,1.3-0.9c0-1.4-3.6-0.4-3.6-2.6
			c0-1,1-1.7,2.2-1.7C53.8,25.1,54.7,25.7,54.8,26.7z"/>
		<path class="st1" d="M57.4,26.1v3.2c0,0.8,0.3,0.9,0.9,0.9c0.1,0,0.4,0,0.5-0.1v0.8C58.6,31,58.3,31,58.1,31
			c-1.1,0-1.7-0.4-1.7-1.6v-3.3h-1v-0.8h1v-1.4l0.9-0.7v2h1.6v0.9H57.4z"/>
		<path class="st1" d="M61.1,23v1.1H60V23H61.1z M61,25.3v5.5h-0.9v-5.5H61z"/>
		<path class="st1" d="M63.8,26.1v3.2c0,0.8,0.3,0.9,0.9,0.9c0.1,0,0.4,0,0.5-0.1v0.8C65,31,64.7,31,64.5,31c-1.1,0-1.7-0.4-1.7-1.6
			v-3.3h-1v-0.8h1v-1.4l0.9-0.7v2h1.6v0.9H63.8z"/>
		<path class="st1" d="M71.9,30.8H71L70.4,29v1c-0.3,0.5-0.8,1-1.8,1c-1.3,0-2.1-0.8-2.1-2.1v-3.6h0.9v3.4c0,1,0.5,1.5,1.4,1.5
			c1,0,1.6-0.7,1.6-2.1v-2.8h0.9v3.6L71.9,30.8z"/>
	</g>
	<g class="st0">
		<path class="st1" d="M74.3,26.1v3.2c0,0.8,0.3,0.9,0.9,0.9c0.1,0,0.4,0,0.5-0.1v0.8C75.6,31,75.3,31,75.1,31
			c-1.1,0-1.7-0.4-1.7-1.6v-3.3h-1v-0.8h1v-1.4l0.9-0.7v2h1.6v0.9H74.3z"/>
	</g>
	<g class="st0">
		<path class="st1" d="M82.1,28.3h-4.5c0.1,1.2,0.9,1.9,1.9,1.9c0.9,0,1.5-0.4,1.8-1.1l0.7,0.6c-0.5,0.9-1.5,1.3-2.5,1.3
			c-1.7,0-2.8-1.2-2.8-2.9c0-1.7,1.2-2.9,2.7-2.9c1.7,0,2.7,1.2,2.7,2.8C82.1,28,82.1,28.2,82.1,28.3z M77.6,27.6h3.5
			c0-1.1-0.7-1.7-1.7-1.7C78.6,25.9,77.8,26.5,77.6,27.6z"/>
	</g>
	<path class="st1" d="M7.2,31.6h17.9l8.1-18H15.4L7.2,31.6z M25.2,32H6.9c-0.1,0-0.1,0-0.1-0.1c0,0,0-0.1,0-0.2l8.2-18.3
		c0-0.1,0.1-0.1,0.1-0.1h18.3c0.1,0,0.1,0,0.1,0.1s0,0.1,0,0.2l-8.3,18.3C25.3,31.9,25.3,32,25.2,32L25.2,32z"/>
	<path class="st1" d="M5.5,28.3h17.9l8.1-18H13.6L5.5,28.3z M23.6,28.6H5.2c-0.1,0-0.1,0-0.1-0.1c0,0,0-0.1,0-0.2L13.4,10
		c0-0.1,0.1-0.1,0.1-0.1h18.3c0.1,0,0.1,0,0.1,0.1s0,0.1,0,0.2L23.6,28.6L23.6,28.6L23.6,28.6z"/>
	<path class="st1" d="M3.8,25h17.9l8.2-18h-18L3.8,25z M21.9,25.3H3.5c-0.1,0-0.1,0-0.1-0.1c0,0,0-0.1,0-0.2l8.3-18.3
		c0-0.1,0.1-0.1,0.1-0.1h18.3c0.1,0,0.1,0,0.1,0.1s0,0.1,0,0.2L22,25.2C22,25.3,21.9,25.3,21.9,25.3L21.9,25.3z"/>
	<path class="st1" d="M2.1,21.6h18l8.1-18h-18L2.1,21.6z M20.2,22H1.9c-0.1,0-0.1,0-0.1-0.1c0,0,0-0.1,0-0.2L10,3.4
		c0-0.1,0.1-0.1,0.2-0.1h18.3c0.1,0,0.1,0,0.1,0.1c0,0.1,0,0.1,0,0.2l-8.3,18.3C20.3,21.9,20.2,22,20.2,22L20.2,22z"/>
	<path class="st1" d="M0.4,18.3h17.9l8.1-18H8.6L0.4,18.3z M18.5,18.6H0.2c-0.1,0-0.1,0-0.2-0.1c0,0,0-0.1,0-0.2L8.3,0.1
		C8.3,0,8.4,0,8.4,0h18.3c0.1,0,0.1,0,0.1,0.1s0,0.1,0,0.2L18.5,18.6C18.6,18.6,18.5,18.6,18.5,18.6L18.5,18.6z"/>
</g>
</svg>
