<svg version="1.1" id="Calque_1" xmlns="http://www.w3.org/2000/svg" xmlns:xlink="http://www.w3.org/1999/xlink" x="0px" y="0px"
	 viewBox="0 0 174.1 67.4" style="enable-background:new 0 0 174.1 67.4;" xml:space="preserve">
<style type="text/css">
	.st0{fill:#004494;}
	.st1{fill:#FFF100;}
	.st2{fill:#787878;}
	.st3{fill:#FFFFFF;}
</style>
<g id="Calque_4">
	<g id="EUflag">
		<polygon class="st0" points="50,32 50,0 2.1,0 2.1,32 		"/>
	</g>
	<polygon class="st1" points="26.2,4 27.8,4 26.5,5.1 27,6.8 25.7,5.8 24.4,6.8 24.8,5.1 23.5,4 25.1,4 25.7,2.4 	"/>
	<polygon class="st1" points="26.3,26.1 27.9,26.1 26.6,27.1 27,28.7 25.7,27.7 24.4,28.7 25,27.1 23.5,26.1 25.3,26.1 25.7,24.6 	
		"/>
	<polygon class="st1" points="31.7,24.6 33.3,24.6 32,25.6 32.6,27.2 31.3,26.2 29.8,27.2 30.4,25.6 29.1,24.6 30.7,24.6 31.3,23.1 
			"/>
	<polygon class="st1" points="31.7,5.5 33.3,5.5 32,6.5 32.6,8.1 31.3,7.1 29.8,8.1 30.4,6.5 29.1,5.5 30.7,5.5 31.3,4 	"/>
	<polygon class="st1" points="35.8,9.6 37.4,9.6 36.1,10.6 36.5,12.2 35.2,11.2 33.9,12.2 34.5,10.6 33.2,9.6 34.8,9.6 35.2,8 	"/>
	<polygon class="st1" points="35.8,20.7 37.4,20.7 36.1,21.7 36.5,23.3 35.2,22.3 33.9,23.3 34.5,21.7 33.2,20.7 34.8,20.7 
		35.2,19.1 	"/>
	<polygon class="st1" points="37.2,15 38.9,15 37.5,16 38.1,17.6 36.8,16.6 35.5,17.6 35.9,16 34.6,15 36.2,15 36.8,13.5 	"/>
	<polygon class="st1" points="20.6,5.5 22.2,5.5 20.9,6.5 21.5,8.1 20.2,7.1 18.9,8.1 19.3,6.5 18,5.5 19.6,5.5 20.2,4 	"/>
	<polygon class="st1" points="16.7,9.6 18.3,9.6 17,10.6 17.6,12.2 16.2,11.2 14.9,12.2 15.4,10.6 14.1,9.6 15.7,9.6 16.2,8.1 	"/>
	<polygon class="st1" points="15.2,15.1 16.8,15.1 15.5,16 16.1,17.6 14.8,16.7 13.5,17.6 13.9,16 12.6,15.1 14.2,15.1 14.8,13.5 	
		"/>
	<polygon class="st1" points="16.7,20.7 18.3,20.7 17,21.7 17.6,23.3 16.2,22.3 14.9,23.3 15.4,21.7 14.1,20.7 15.7,20.7 16.2,19.1 
			"/>
	<polygon class="st1" points="20.6,24.6 22.4,24.6 21.1,25.6 21.5,27.2 20.2,26.2 18.9,27.2 19.5,25.6 18,24.6 19.7,24.6 20.2,23.1 
			"/>
</g>
<g id="Calque_6">
	<path class="st2" d="M174,43.5v5.1h-4.1v10.7c0,1,0,1.8,0.4,2.1c0.6,0.4,1.4,0.6,2.1,0.5h0.9c0.3,0,0.5-0.1,0.8-0.1v4.8
		c0,0.1-1,0.1-1.7,0.1h-1.8c-0.9,0-1.9,0-2.8-0.3c-0.8-0.1-1.6-0.4-2.2-0.8c-0.6-0.4-1.1-0.9-1.4-1.6c-0.4-0.9-0.5-1.8-0.4-2.8v-13
		h-4.1v-5.1h4.1v-6.2h6.2v6.2h4.1L174,43.5z M149.5,56c-0.4,0.1-0.8,0.2-1.2,0.3c-0.4,0.1-0.9,0.1-1.4,0.3s-1.1,0.1-1.4,0.3
		c-0.5,0.1-0.9,0.2-1.3,0.4c-0.4,0.1-0.9,0.3-1.2,0.7c-0.4,0.2-0.6,0.5-0.8,0.9c-0.2,0.4-0.3,0.9-0.3,1.4c0,0.5,0.1,1,0.3,1.4
		c0.2,0.3,0.5,0.6,0.8,0.9c0.4,0.2,0.8,0.4,1.2,0.5c0.5,0.1,1,0.2,1.4,0.1c1,0.1,2-0.1,2.9-0.7c0.6-0.3,1.1-0.8,1.4-1.4
		c0.3-0.5,0.4-1.1,0.4-1.7c0.1-0.5,0.1-1,0-1.5v-2.4C150.4,55.8,149.8,55.9,149.5,56 M137.3,47.1c0.7-1,1.5-1.7,2.6-2.2
		c1.1-0.6,2.2-1,3.4-1.2c1.2-0.3,2.5-0.4,3.8-0.4c1.2,0,2.4,0.1,3.5,0.3c1.1,0.2,2.2,0.5,3.3,0.9c0.9,0.5,1.6,1.2,2.2,2
		c0.6,1,0.9,2.1,0.8,3.3v11.9c0.1,1,0.2,1.9,0.4,2.9c0.1,0.7,0.3,1.4,0.7,2.1h-6.3c-0.1-0.4-0.1-0.7-0.3-1c-0.1-0.4-0.2-0.8-0.1-1.2
		c-1,1-2.2,1.7-3.5,2.1c-1.4,0.4-2.8,0.6-4.2,0.7c-1,0-2-0.1-3-0.4c-0.9-0.3-1.7-0.7-2.5-1.2c-0.7-0.6-1.3-1.3-1.7-2.1
		c-0.4-1-0.6-2-0.5-3c0-1.1,0.2-2.2,0.6-3.1c0.4-0.8,1-1.5,1.7-2c0.7-0.5,1.6-0.9,2.5-1.2c0.9-0.3,1.8-0.4,2.8-0.7l2.8-0.4
		c0.9-0.1,1.7-0.3,2.5-0.4c0.6-0.1,1.2-0.4,1.7-0.8c0.4-0.3,0.6-0.9,0.5-1.5c0-0.6-0.1-1.1-0.4-1.6c-0.2-0.4-0.6-0.7-0.9-0.9
		c-0.4-0.3-0.8-0.4-1.3-0.4c-0.5-0.1-1-0.2-1.6-0.1c-1-0.1-2,0.1-2.9,0.7c-0.7,0.7-1.1,1.5-1.2,2.5h-6.3c0-1.2,0.4-2.5,1.1-3.5
		 M133,43.5v5.1h-5.2v10.7c0,0.8,0.2,1.5,0.7,2.1c0.7,0.4,1.4,0.6,2.2,0.5h1.2c0.3,0,0.7-0.1,1-0.1v4.8c-0.6,0.1-1.2,0.1-1.8,0.1h-2
		c-0.9,0-1.9,0-2.8-0.3c-0.8-0.1-1.6-0.4-2.3-0.8c-0.7-0.4-1.3-0.9-1.7-1.6c-0.5-0.8-0.7-1.8-0.7-2.8v-13h-3v-5.1h3v-6.2h6.2v6.2
		h5.1L133,43.5z M101.7,60.8c0.2,0.5,0.6,1,1,1.3c0.5,0.4,1,0.6,1.6,0.8c0.6,0.1,1.1,0.2,1.7,0.3c0.5,0,1,0,1.4-0.1
		c0.5-0.1,0.9-0.3,1.3-0.5c0.4-0.2,0.7-0.5,1-0.9c0.3-0.4,0.4-0.9,0.4-1.4c-0.1-1-0.8-1.9-1.7-2.1c-1.7-0.6-3.5-1.1-5.2-1.4
		c-0.9-0.3-1.8-0.5-2.6-0.8c-0.8-0.3-1.6-0.6-2.4-1c-0.6-0.5-1.2-1.1-1.6-1.8c-0.4-0.8-0.7-1.6-0.7-2.5c0-1.3,0.3-2.5,1-3.6
		c0.5-0.9,1.3-1.7,2.2-2.2c1-0.6,2-1,3.2-1.2c1.2-0.2,2.4-0.3,3.6-0.3c1.2,0,2.4,0.1,3.5,0.4c1.1,0.2,2.2,0.6,3.1,1.2
		c0.9,0.5,1.7,1.3,2.2,2.2c0.6,1.1,0.9,2.3,1,3.5h-5.9c0-1-0.5-1.9-1.3-2.5c-0.9-0.4-1.9-0.7-2.9-0.7h-1.1c-0.4,0-0.8,0.1-1.2,0.3
		c-0.4,0.1-0.7,0.4-0.9,0.7c-0.3,0.3-0.4,0.8-0.4,1.2c0,0.5,0.2,1,0.7,1.3c0.5,0.4,1,0.7,1.6,0.9c0.7,0.3,1.4,0.4,2.2,0.7
		s1.7,0.4,2.6,0.5c0.9,0.2,1.8,0.5,2.6,0.8c0.8,0.3,1.6,0.7,2.4,1.2c0.7,0.5,1.2,1.1,1.6,1.8c0.4,0.8,0.6,1.7,0.7,2.6
		c0.1,1.3-0.3,2.6-0.9,3.8c-0.6,1-1.4,1.8-2.4,2.5c-1,0.6-2.1,1.1-3.3,1.3c-1.3,0.3-2.5,0.4-3.8,0.4c-1.3,0-2.6-0.1-3.8-0.4
		c-1.2-0.2-2.4-0.7-3.4-1.3C97.8,64.9,97,64,96.4,63c-0.7-1.2-1.1-2.6-1-4.1h5.9C101.3,59.6,101.4,60.2,101.7,60.8 M70.6,50.3
		c0.5-1.4,1.3-2.7,2.4-3.8c1-1.1,2.3-1.9,3.7-2.4c3.1-1,6.6-1,9.7,0c1.4,0.6,2.6,1.4,3.7,2.4c1.1,1.1,1.9,2.4,2.4,3.8
		c0.6,1.6,0.8,3.3,0.8,5c0,1.7-0.2,3.4-0.8,5C91.8,61.7,91,62.9,90,64c-1,1.1-2.3,1.9-3.7,2.4c-1.6,0.5-3.2,0.8-4.8,0.8
		c-1.7,0-3.3-0.2-4.8-0.8C75.2,65.9,74,65.1,73,64c-1.1-1.1-1.9-2.4-2.4-3.8c-0.6-1.6-0.8-3.3-0.8-5C69.8,53.5,70.1,51.8,70.6,50.3
		 M76.2,58c0.1,0.8,0.5,1.6,0.9,2.4c0.5,0.7,1,1.2,1.7,1.7c0.8,0.4,1.7,0.7,2.6,0.7c0.9,0,1.8-0.2,2.6-0.7c0.7-0.4,1.4-1,1.8-1.7
		c0.4-0.7,0.7-1.5,0.9-2.4c0.2-0.9,0.2-1.7,0.3-2.6c0-0.9-0.1-1.8-0.3-2.8c-0.1-0.8-0.4-1.6-0.9-2.4c-0.5-0.7-1-1.2-1.7-1.7
		c-0.8-0.4-1.7-0.7-2.6-0.7c-0.9,0-1.8,0.2-2.6,0.7c-0.7,0.4-1.3,1-1.7,1.7c-0.4,0.7-0.7,1.5-0.9,2.4c-0.2,0.9-0.2,1.8-0.3,2.8
		C76,56.3,76.1,57.1,76.2,58 M61.2,43.5v5.1H61c0.2-0.8,0.6-1.6,1.2-2.2c0.5-0.6,1.1-1.2,1.7-1.7c0.7-0.4,1.4-0.7,2.1-1
		c0.7-0.2,1.4-0.4,2.1-0.4c0.4,0,1.3,0,1.3,0.1v6c-0.3-0.1-0.6-0.1-0.9-0.1h-1.2c-1-0.1-2,0.1-2.9,0.5c-0.8,0.3-1.4,0.9-1.8,1.6
		c-0.5,0.7-0.8,1.5-1,2.4c-0.2,0.9-0.3,1.9-0.3,2.9v10.6h-6.2V43.6h6L61.2,43.5z M43.7,67.1V64l0,0c-0.8,1.1-1.9,2-3.1,2.6
		c-1.2,0.5-2.6,0.8-3.9,0.8c-1.4,0-2.8-0.2-4.1-0.7c-1-0.3-1.9-0.9-2.5-1.8c-0.7-0.9-1.1-1.9-1.3-3c-0.3-1.3-0.4-2.7-0.4-4V43.6h6.2
		V57c-0.1,1.5,0.3,2.9,1,4.2c0.7,1,1.9,1.5,3.1,1.4c1.5,0.1,2.9-0.5,3.8-1.6c1-1.5,1.4-3.2,1.3-5V43.6H50v23.6h-6.3V67.1z M9.8,61.2
		c1.1,1,2.5,1.5,4,1.4c1.1,0,2.3-0.2,3.3-0.8c0.9-0.7,1.4-0.9,1.7-1.8h5.5c-0.9,2.1-2.2,4.6-4.1,5.8c-2,1.2-4.2,1.8-6.5,1.7
		c-1.7,0.1-3.3-0.3-4.9-0.9C7.5,66,6.2,65.1,5.2,64c-1-1.1-1.9-2.4-2.4-3.8C2.3,58.7,2,57,2.1,55.4c0-1.6,0.2-3.2,0.8-4.7
		c1-2.9,3.2-5.1,6-6.3c1.5-0.6,3.1-0.9,4.7-0.9c1.8,0,3.5,0.4,5.1,1.2c1.4,0.7,2.6,1.7,3.5,3c1,1.3,1.6,2.8,2,4.3
		c0.4,1.7,0.6,3.4,0.4,5.1H8.2C8.2,58.6,8.8,60.1,9.8,61.2 M16.8,49.1c-0.9-0.9-2.2-1.3-3.4-1.2c-0.9-0.1-1.7,0.1-2.5,0.5
		c-0.6,0.3-1.1,0.8-1.6,1.3c-0.4,0.4-0.7,1-0.8,1.6c-0.1,0.5-0.3,1.4-0.3,1.4h10.2C18.1,51.5,17.5,50.3,16.8,49.1"/>
</g>
<rect x="50" y="0" class="st3" width="2" height="24"/>
<rect x="0" y="0" class="st3" width="2" height="24.3"/>
</svg>
