<?xml version="1.0" encoding="UTF-8" ?>
<!DOCTYPE svg PUBLIC "-//W3C//DTD SVG 1.1//EN" "http://www.w3.org/Graphics/SVG/1.1/DTD/svg11.dtd">
<svg width="1796pt" height="557pt" viewBox="0 0 1796 557" version="1.1" xmlns="http://www.w3.org/2000/svg">
<path fill="#ffffff" d=" M 0.00 0.00 L 153.59 0.00 C 153.50 34.90 153.76 69.80 153.45 104.70 C 136.54 104.61 119.63 104.70 102.72 104.65 C 102.28 149.52 102.70 194.40 102.51 239.27 C 102.29 196.84 102.47 154.40 102.41 111.97 C 102.94 100.57 102.76 89.15 102.77 77.74 C 85.44 77.73 68.12 77.72 50.79 77.75 C 50.78 114.03 50.78 150.32 50.79 186.61 C 33.86 186.73 16.92 186.25 0.00 186.84 L 0.00 0.00 Z" />
<path fill="#87d1ce" d=" M 153.59 0.00 L 232.03 0.00 C 232.00 30.48 232.27 60.96 231.90 91.44 C 231.63 122.77 231.85 154.10 231.78 185.43 C 205.69 185.50 179.59 185.38 153.49 185.49 C 152.98 166.67 153.41 147.83 153.27 129.01 C 153.32 120.90 153.10 112.80 153.45 104.70 C 153.76 69.80 153.50 34.90 153.59 0.00 Z" />
<path fill="#ffffff" d=" M 232.03 0.00 L 1796.00 0.00 L 1796.00 188.32 C 1792.38 187.45 1788.66 187.57 1785.00 187.62 C 1746.92 187.70 1708.83 187.55 1670.76 187.69 C 1667.73 187.38 1667.88 190.95 1667.86 193.00 C 1668.03 201.16 1667.46 209.36 1668.37 217.50 C 1683.43 217.82 1698.50 217.49 1713.56 217.68 C 1713.88 261.12 1713.61 304.57 1713.70 348.02 C 1713.99 356.49 1712.95 365.06 1714.44 373.45 C 1725.29 373.72 1736.16 373.63 1747.02 373.56 C 1749.14 373.96 1750.83 372.11 1750.50 370.04 C 1750.59 319.27 1750.41 268.49 1750.59 217.72 C 1765.72 217.41 1780.87 217.88 1796.00 217.47 L 1796.00 557.00 L 283.33 557.00 C 283.31 533.84 283.38 510.69 283.30 487.54 C 309.30 487.54 335.30 487.54 361.30 487.54 C 361.27 466.45 361.38 445.36 361.24 424.28 C 378.35 424.25 395.45 424.27 412.56 424.27 C 412.46 409.43 412.78 394.59 412.40 379.76 C 429.53 379.75 446.66 379.76 463.79 379.76 C 463.79 338.98 463.80 298.21 463.79 257.44 C 463.78 222.38 463.81 187.32 463.78 152.27 C 446.63 152.27 429.49 152.23 412.35 152.28 C 412.26 163.64 412.50 175.01 412.22 186.36 C 395.22 186.52 378.23 186.40 361.24 186.43 C 361.39 139.41 361.26 92.39 361.30 45.38 C 335.24 45.35 309.18 45.38 283.12 45.36 C 283.11 60.72 283.12 76.08 283.12 91.44 C 266.04 91.44 248.97 91.45 231.90 91.44 C 232.27 60.96 232.00 30.48 232.03 0.00 Z" />
<path fill="#7fbc3d" d=" M 283.12 45.36 C 309.18 45.38 335.24 45.35 361.30 45.38 C 361.26 92.39 361.39 139.41 361.24 186.43 C 360.87 209.93 361.24 233.44 361.05 256.95 C 335.08 257.00 309.10 257.09 283.13 256.90 C 283.09 201.75 283.13 146.59 283.12 91.44 C 283.12 76.08 283.11 60.72 283.12 45.36 Z" />
<path fill="#40c8f4" d=" M 50.79 77.75 C 68.12 77.72 85.44 77.73 102.77 77.74 C 102.76 89.15 102.94 100.57 102.41 111.97 C 102.47 154.40 102.29 196.84 102.51 239.27 C 85.25 239.25 67.99 239.28 50.73 239.26 C 50.91 221.71 50.79 204.16 50.79 186.61 C 50.78 150.32 50.78 114.03 50.79 77.75 Z" />
<path fill="#00aa4f" d=" M 231.90 91.44 C 248.97 91.45 266.04 91.44 283.12 91.44 C 283.13 146.59 283.09 201.75 283.13 256.90 L 283.14 257.30 C 283.09 282.00 283.15 306.69 283.10 331.38 C 266.01 331.44 248.91 331.46 231.82 331.38 C 231.81 282.73 231.87 234.08 231.78 185.43 C 231.85 154.10 231.63 122.77 231.90 91.44 Z" />
<path fill="#3ac0be" d=" M 102.72 104.65 C 119.63 104.70 136.54 104.61 153.45 104.70 C 153.10 112.80 153.32 120.90 153.27 129.01 C 153.41 147.83 152.98 166.67 153.49 185.49 C 153.85 216.72 153.66 247.95 153.59 279.18 L 153.43 279.18 C 145.60 279.40 137.77 278.42 129.95 278.99 C 121.01 279.54 112.05 279.10 103.11 278.88 C 102.59 307.24 103.02 335.61 102.88 363.98 C 102.74 384.08 103.17 404.19 102.65 424.28 L 102.27 424.28 C 102.62 392.51 102.32 360.74 102.42 328.97 C 102.36 299.07 102.57 269.17 102.51 239.27 C 102.70 194.40 102.28 149.52 102.72 104.65 Z" />
<path fill="#c1dfa4" d=" M 412.35 152.28 C 429.49 152.23 446.63 152.27 463.78 152.27 C 463.81 187.32 463.78 222.38 463.79 257.44 C 446.63 257.55 429.48 257.46 412.32 257.49 C 411.77 248.35 412.16 239.20 412.05 230.05 C 412.14 215.49 411.85 200.92 412.22 186.36 C 412.50 175.01 412.26 163.64 412.35 152.28 Z" />
<path fill="#00908f" d=" M 153.49 185.49 C 179.59 185.38 205.69 185.50 231.78 185.43 C 231.87 234.08 231.81 282.73 231.82 331.38 C 231.73 395.83 231.89 460.29 231.74 524.74 C 205.68 524.76 179.62 524.75 153.57 524.76 C 153.59 442.90 153.51 361.04 153.59 279.18 C 153.66 247.95 153.85 216.72 153.49 185.49 Z" />
<path fill="#008d7f" d=" M 1063.07 197.07 C 1072.76 188.95 1085.65 186.29 1097.97 185.52 C 1104.98 185.32 1111.97 184.34 1119.00 184.93 C 1123.61 185.55 1128.28 185.41 1132.92 185.89 C 1145.81 187.38 1159.21 192.10 1167.29 202.82 C 1178.61 217.72 1181.77 236.84 1184.14 254.93 C 1186.28 278.35 1185.71 302.09 1181.26 325.22 L 1180.87 325.94 C 1178.36 338.13 1174.14 350.49 1165.97 360.08 C 1157.35 370.15 1143.95 374.25 1131.17 375.48 C 1116.20 376.79 1100.99 376.95 1086.14 374.47 C 1073.54 372.40 1061.27 365.68 1054.58 354.52 C 1046.21 340.47 1042.98 324.07 1041.03 308.03 C 1039.86 294.09 1038.76 280.01 1040.11 266.04 C 1040.76 250.78 1042.98 235.46 1048.00 220.99 C 1051.15 212.05 1055.55 203.13 1063.07 197.07 Z" />
<path fill="#acd36a" d=" M 361.24 186.43 C 378.23 186.40 395.22 186.52 412.22 186.36 C 411.85 200.92 412.14 215.49 412.05 230.05 C 412.16 239.20 411.77 248.35 412.32 257.49 C 412.72 272.22 412.78 287.00 412.28 301.73 C 395.21 301.65 378.15 301.70 361.08 301.70 C 361.08 286.90 361.09 272.10 361.08 257.30 C 335.10 257.29 309.12 257.28 283.14 257.30 L 283.13 256.90 C 309.10 257.09 335.08 257.00 361.05 256.95 C 361.24 233.44 360.87 209.93 361.24 186.43 Z" />
<path fill="#8dd8f8" d=" M 0.00 186.84 C 16.92 186.25 33.86 186.73 50.79 186.61 C 50.79 204.16 50.91 221.71 50.73 239.26 C 50.52 270.27 50.90 301.28 50.54 332.29 C 33.69 332.27 16.85 332.29 0.00 332.28 L 0.00 186.84 Z" />
<path fill="#008d7f" d=" M 584.67 188.94 C 585.17 188.61 586.19 187.95 586.69 187.62 C 620.17 187.68 653.64 187.59 687.12 187.67 C 690.90 187.60 690.26 192.43 690.31 194.98 C 689.86 202.48 691.19 210.14 689.42 217.49 C 666.82 217.85 644.21 217.46 621.60 217.69 C 621.25 233.01 621.42 248.34 621.52 263.66 C 640.38 263.81 659.25 263.68 678.12 263.72 C 678.70 264.02 679.85 264.60 680.43 264.90 C 680.61 273.74 680.50 282.59 680.49 291.45 C 679.02 291.86 677.54 292.35 676.01 292.33 C 657.85 292.38 639.69 292.22 621.53 292.41 C 621.29 309.15 621.49 325.89 621.43 342.64 C 623.59 343.01 625.79 343.30 628.01 343.26 C 648.01 343.09 668.01 343.27 688.02 343.22 C 689.53 343.37 691.65 342.91 692.28 344.77 C 692.56 353.52 692.42 362.30 692.36 371.06 C 692.54 372.86 690.59 373.79 689.05 373.59 C 655.37 373.62 621.68 373.62 588.01 373.59 C 585.83 374.00 584.14 372.16 584.55 370.04 C 584.62 309.67 584.39 249.30 584.67 188.94 Z" />
<path fill="#008d7f" d=" M 722.35 191.95 C 722.22 190.36 722.99 188.97 723.66 187.60 C 734.44 187.73 745.24 187.54 756.02 187.68 C 758.87 187.47 759.11 190.82 759.18 192.89 C 759.20 232.92 759.21 272.96 759.17 313.00 C 759.46 320.14 758.08 327.82 761.66 334.39 C 763.66 338.65 767.66 341.39 771.81 343.30 C 779.97 345.78 788.60 345.84 797.04 345.23 C 803.37 344.50 810.31 342.75 814.38 337.43 C 818.57 332.28 818.99 325.34 819.29 319.00 C 819.28 288.99 819.28 258.99 819.28 228.98 C 819.43 215.59 818.99 202.16 819.49 188.79 C 819.85 188.54 820.57 188.03 820.94 187.78 C 831.95 187.46 842.99 187.68 854.01 187.69 C 854.35 188.22 855.03 189.27 855.37 189.79 C 855.38 237.52 855.38 285.25 855.38 332.99 C 855.18 342.50 851.53 351.99 844.78 358.78 C 835.89 367.87 823.39 372.20 811.16 374.49 C 795.56 377.13 779.53 376.93 763.93 374.48 C 752.17 372.38 739.94 368.38 731.74 359.22 C 725.11 351.84 722.33 341.76 722.37 331.99 C 722.33 285.31 722.36 238.63 722.35 191.95 Z" />
<path fill="#008d7f" d=" M 889.61 188.92 C 890.11 188.59 891.10 187.95 891.60 187.62 C 908.73 187.66 925.86 187.63 942.99 187.64 C 958.04 187.55 973.76 187.85 987.70 194.21 C 997.51 198.47 1005.46 206.92 1008.77 217.13 C 1011.80 225.06 1011.95 233.65 1011.77 242.03 C 1012.02 253.82 1010.24 266.29 1003.28 276.13 C 999.16 282.08 993.19 286.32 987.21 290.21 C 984.05 292.25 985.59 296.49 987.03 299.15 C 998.88 320.62 1010.45 342.24 1022.20 363.77 C 1023.96 366.83 1025.74 369.93 1026.76 373.34 C 1013.15 373.81 999.50 373.72 985.90 373.39 C 974.80 351.72 963.96 329.92 952.87 308.25 C 951.95 306.56 950.86 304.99 949.73 303.46 C 941.94 303.45 934.15 303.28 926.37 303.57 C 926.08 326.06 926.33 348.56 926.24 371.06 C 925.96 371.64 925.41 372.81 925.14 373.40 C 913.60 373.83 902.05 373.56 890.51 373.54 C 889.94 372.11 889.29 370.65 889.39 369.08 C 889.41 315.72 889.39 262.35 889.40 208.99 C 889.48 202.30 889.19 195.60 889.61 188.92 Z" />
<path fill="#008d7f" d=" M 1214.50 198.99 C 1214.57 195.19 1213.96 191.21 1215.61 187.63 C 1232.25 187.60 1248.89 187.74 1265.53 187.56 C 1268.68 191.51 1269.69 196.57 1271.48 201.20 C 1285.94 241.51 1300.46 281.81 1314.92 322.13 C 1315.37 323.73 1316.42 324.83 1318.26 324.59 C 1319.23 323.25 1319.20 321.58 1319.23 320.01 C 1319.16 277.67 1319.24 235.32 1319.19 192.98 C 1319.20 191.59 1319.20 190.18 1319.57 188.84 C 1320.88 187.14 1323.14 187.75 1325.01 187.61 C 1332.34 187.68 1339.68 187.62 1347.02 187.62 C 1348.60 187.58 1350.13 188.07 1351.66 188.49 C 1351.78 243.99 1351.68 299.50 1351.71 355.00 C 1351.64 361.12 1351.92 367.24 1351.46 373.34 C 1336.01 373.90 1320.53 373.52 1305.07 373.56 C 1302.84 373.80 1301.85 371.53 1301.19 369.83 C 1291.81 344.22 1282.33 318.64 1272.84 293.06 C 1266.12 274.57 1259.18 256.15 1252.45 237.66 C 1251.63 235.32 1250.49 233.13 1249.19 231.04 C 1248.55 231.18 1247.26 231.44 1246.61 231.58 C 1246.38 278.02 1246.63 324.47 1246.49 370.92 C 1246.75 372.83 1244.69 373.80 1243.06 373.58 C 1233.86 373.62 1224.66 373.68 1215.46 373.51 C 1214.00 369.85 1214.57 365.86 1214.50 362.02 C 1214.50 307.68 1214.51 253.33 1214.50 198.99 Z" />
<path fill="#008d7f" d=" M 1385.64 188.92 C 1386.13 188.60 1387.10 187.94 1387.58 187.62 C 1421.09 187.69 1454.60 187.58 1488.11 187.67 C 1490.41 187.40 1491.33 190.05 1491.26 191.92 C 1491.33 199.60 1491.26 207.30 1491.26 214.99 C 1490.99 215.60 1490.44 216.83 1490.16 217.44 C 1467.64 217.91 1445.11 217.42 1422.59 217.69 C 1422.27 233.01 1422.42 248.35 1422.51 263.68 C 1441.38 263.79 1460.26 263.70 1479.13 263.72 C 1479.70 264.02 1480.84 264.62 1481.41 264.91 C 1481.60 273.64 1481.57 282.38 1481.43 291.11 C 1480.91 291.42 1479.89 292.04 1479.37 292.35 C 1460.42 292.33 1441.46 292.26 1422.51 292.39 C 1422.34 309.10 1422.44 325.82 1422.46 342.54 C 1423.58 342.77 1424.71 343.00 1425.86 343.24 C 1440.92 343.30 1456.00 343.15 1471.04 343.05 C 1476.70 343.18 1482.41 343.61 1488.06 342.83 C 1489.41 343.08 1490.82 343.25 1492.20 343.63 C 1493.62 344.60 1493.23 346.45 1493.35 347.93 C 1493.31 355.75 1493.29 363.57 1493.34 371.39 C 1493.04 371.91 1492.44 372.95 1492.14 373.47 C 1458.08 373.79 1424.02 373.51 1389.96 373.62 C 1388.09 373.80 1385.25 373.37 1385.58 370.88 C 1385.57 310.23 1385.45 249.57 1385.64 188.92 Z" />
<path fill="#008d7f" d=" M 1515.92 187.67 C 1527.30 187.64 1538.69 187.60 1550.08 187.67 C 1553.16 187.51 1554.87 190.45 1556.24 192.74 C 1565.39 208.48 1574.75 224.09 1583.87 239.85 C 1584.22 239.82 1584.92 239.77 1585.27 239.75 C 1594.10 224.12 1603.18 208.64 1612.01 193.01 C 1613.10 190.92 1614.61 189.08 1616.41 187.53 C 1627.93 187.80 1639.46 187.53 1650.99 187.68 C 1651.41 188.25 1652.26 189.41 1652.69 189.99 C 1637.03 218.25 1620.29 245.91 1604.45 274.07 C 1606.84 279.57 1610.36 284.52 1613.26 289.78 C 1628.73 316.34 1644.24 342.88 1659.71 369.44 C 1660.72 370.82 1660.90 373.37 1658.65 373.48 C 1647.44 373.77 1636.20 373.54 1624.99 373.60 C 1622.94 373.83 1621.12 372.71 1620.10 371.00 C 1607.57 350.38 1595.76 329.30 1583.03 308.81 C 1571.37 329.56 1559.90 350.44 1548.19 371.16 C 1546.67 374.34 1542.82 373.51 1539.99 373.63 C 1529.93 373.41 1519.84 373.95 1509.81 373.38 C 1509.50 373.04 1508.88 372.37 1508.56 372.04 C 1510.97 365.70 1515.07 360.16 1518.10 354.11 C 1532.96 327.45 1548.14 300.94 1562.77 274.16 C 1547.17 245.86 1530.26 218.22 1514.47 190.01 C 1514.84 189.42 1515.56 188.25 1515.92 187.67 Z" />
<path fill="#008d7f" d=" M 1667.86 193.00 C 1667.88 190.95 1667.73 187.38 1670.76 187.69 C 1708.83 187.55 1746.92 187.70 1785.00 187.62 C 1788.66 187.57 1792.38 187.45 1796.00 188.32 L 1796.00 217.47 C 1780.87 217.88 1765.72 217.41 1750.59 217.72 C 1750.41 268.49 1750.59 319.27 1750.50 370.04 C 1750.83 372.11 1749.14 373.96 1747.02 373.56 C 1736.16 373.63 1725.29 373.72 1714.44 373.45 C 1712.95 365.06 1713.99 356.49 1713.70 348.02 C 1713.61 304.57 1713.88 261.12 1713.56 217.68 C 1698.50 217.49 1683.43 217.82 1668.37 217.50 C 1667.46 209.36 1668.03 201.16 1667.86 193.00 Z" />
<path fill="#ffffff" d=" M 926.40 214.56 C 936.62 214.67 947.00 213.60 957.10 215.59 C 962.42 216.61 967.81 219.44 970.32 224.47 C 974.24 232.01 973.74 240.75 973.69 248.98 C 973.62 256.48 972.35 264.52 967.49 270.50 C 962.71 276.11 955.07 278.12 947.98 278.48 C 940.79 278.69 933.60 278.72 926.42 278.48 C 926.11 257.18 926.15 235.86 926.40 214.56 Z" />
<path fill="#ffffff" d=" M 1085.93 222.97 C 1090.48 215.61 1100.28 215.33 1108.00 215.37 C 1117.41 215.81 1128.16 213.66 1136.27 219.69 C 1142.89 226.24 1143.31 236.28 1145.13 244.90 C 1146.78 260.87 1147.89 276.98 1146.82 293.03 C 1146.40 306.38 1145.45 319.91 1141.56 332.76 C 1139.98 338.39 1135.92 343.63 1129.90 344.73 C 1118.86 346.80 1107.45 346.61 1096.36 345.04 C 1091.14 344.14 1086.35 340.79 1084.54 335.68 C 1079.38 322.43 1078.77 307.95 1078.15 293.91 C 1076.90 280.93 1078.16 267.91 1078.71 254.93 C 1080.00 244.11 1080.70 232.76 1085.93 222.97 Z" />
<path fill="#00aeef" d=" M 50.73 239.26 C 67.99 239.28 85.25 239.25 102.51 239.27 C 102.57 269.17 102.36 299.07 102.42 328.97 C 102.32 360.74 102.62 392.51 102.27 424.28 C 85.13 424.27 67.98 424.23 50.83 424.30 C 49.89 415.22 50.50 406.08 50.35 396.97 C 50.48 375.41 50.09 353.84 50.54 332.29 C 50.90 301.28 50.52 270.27 50.73 239.26 Z" />
<path fill="#73c15b" d=" M 412.32 257.49 C 429.48 257.46 446.63 257.55 463.79 257.44 C 463.80 298.21 463.79 338.98 463.79 379.76 C 446.66 379.76 429.53 379.75 412.40 379.76 C 411.75 370.18 412.22 360.57 412.08 350.98 C 412.21 334.56 411.83 318.14 412.28 301.73 C 412.78 287.00 412.72 272.22 412.32 257.49 Z" />
<path fill="#008172" d=" M 283.14 257.30 C 309.12 257.28 335.10 257.29 361.08 257.30 C 361.09 272.10 361.08 286.90 361.08 301.70 C 361.19 342.56 360.87 383.42 361.24 424.28 C 361.38 445.36 361.27 466.45 361.30 487.54 C 335.30 487.54 309.30 487.54 283.30 487.54 C 282.85 464.35 283.21 441.15 283.10 417.96 C 283.13 389.10 283.07 360.24 283.10 331.38 C 283.15 306.69 283.09 282.00 283.14 257.30 Z" />
<path fill="#00a8a7" d=" M 103.11 278.88 C 112.05 279.10 121.01 279.54 129.95 278.99 C 137.77 278.42 145.60 279.40 153.43 279.18 C 153.50 347.03 153.42 414.87 153.47 482.71 C 136.50 482.71 119.53 482.73 102.56 482.70 C 102.62 463.23 102.43 443.75 102.65 424.28 C 103.17 404.19 102.74 384.08 102.88 363.98 C 103.02 335.61 102.59 307.24 103.11 278.88 Z" />
<path fill="#ffffff" d=" M 153.43 279.18 L 153.59 279.18 C 153.51 361.04 153.59 442.90 153.57 524.76 C 179.62 524.75 205.68 524.76 231.74 524.74 C 231.83 535.49 231.76 546.25 231.78 557.00 L 0.00 557.00 L 0.00 448.29 C 16.98 448.30 33.96 448.28 50.93 448.31 C 51.08 440.31 51.31 432.29 50.83 424.30 C 67.98 424.23 85.13 424.27 102.27 424.28 L 102.65 424.28 C 102.43 443.75 102.62 463.23 102.56 482.70 C 119.53 482.73 136.50 482.71 153.47 482.71 C 153.42 414.87 153.50 347.03 153.43 279.18 Z" />
<path fill="#00a34c" d=" M 361.08 301.70 C 378.15 301.70 395.21 301.65 412.28 301.73 C 411.83 318.14 412.21 334.56 412.08 350.98 C 412.22 360.57 411.75 370.18 412.40 379.76 C 412.78 394.59 412.46 409.43 412.56 424.27 C 395.45 424.27 378.35 424.25 361.24 424.28 C 360.87 383.42 361.19 342.56 361.08 301.70 Z" />
<path fill="#006864" d=" M 231.82 331.38 C 248.91 331.46 266.01 331.44 283.10 331.38 C 283.07 360.24 283.13 389.10 283.10 417.96 C 283.21 441.15 282.85 464.35 283.30 487.54 C 283.38 510.69 283.31 533.84 283.33 557.00 L 231.78 557.00 C 231.76 546.25 231.83 535.49 231.74 524.74 C 231.89 460.29 231.73 395.83 231.82 331.38 Z" />
<path fill="#2ac4f4" d=" M 0.00 332.28 C 16.85 332.29 33.69 332.27 50.54 332.29 C 50.09 353.84 50.48 375.41 50.35 396.97 C 50.50 406.08 49.89 415.22 50.83 424.30 C 51.31 432.29 51.08 440.31 50.93 448.31 C 33.96 448.28 16.98 448.30 0.00 448.29 L 0.00 332.28 Z" />
</svg>
