<svg version="1.1" id="Réteg_1" xmlns="http://www.w3.org/2000/svg" xmlns:xlink="http://www.w3.org/1999/xlink" x="0px" y="0px"
	 viewBox="0 0 375.9 117.8" style="enable-background:new 0 0 375.9 117.8;" xml:space="preserve">
<style type="text/css">
	.st0{fill:#5F6062;}
	.st1{fill:#86C6FA;}
</style>
<polygon class="st0" points="9.6,86.4 23.2,78.1 17.2,74.4 7.1,80.6 7.1,63.6 0,68 0,87.9 17.2,98.4 23.2,94.7 "/>
<polygon class="st0" points="9.6,31.2 23.3,22.9 17.2,19.2 0,29.6 0,53.3 7.1,49 7.1,37 16.9,43 22.9,39.3 "/>
<polygon class="st0" points="90.6,68.3 90.6,80.6 80.5,74.4 74.5,78.1 88.1,86.5 74.6,94.8 80.7,98.5 97.7,87.9 97.7,64 "/>
<polygon class="st0" points="62.6,102.2 52.4,108.4 52.4,95.1 45.3,95.1 45.3,108.2 35.3,102.1 29.2,105.8 49,117.8 68.6,105.8 "/>
<polygon class="st0" points="80,19.1 74,22.8 88,31.2 74.5,39.5 80.5,43.1 90.6,37 90.6,53.6 97.7,49.3 97.7,29.6 "/>
<polygon class="st0" points="48.7,0 29.3,11.9 35.3,15.5 45.3,9.5 45.3,22.2 52.4,22.2 52.4,9.6 62,15.5 68,11.8 "/>
<g>
	<path class="st0" d="M119.8,90.7h7.4v1.2h-6v3.4h5.6v1.2h-5.6v3.7h6v1.2h-7.5V90.7z"/>
	<g>
		<g>
			<path class="st0" d="M183.3,100.1c-0.8,1.1-2.2,1.6-3.4,1.6c-3.2,0-5.1-2.6-5.1-5.4c0-3.1,1.7-5.8,5.1-5.8c2.3,0,4.2,1.1,4.6,3.6
				H183c-0.3-1.6-1.6-2.4-3.2-2.4c-2.6,0-3.7,2.3-3.7,4.6c0,2.2,1.3,4.3,3.7,4.3c2.2,0,3.5-1.6,3.4-3.5h-3.4v-1.2h4.7v5.7h-0.9
				L183.3,100.1z"/>
			<path class="st0" d="M160.3,90.7h5.1c2,0,3.3,1.1,3.3,2.8c0,1.3-0.6,2.4-1.9,2.7v0c1.3,0.2,1.5,1.2,1.6,2.2c0.1,1.1,0,2.2,0.6,3
				h-1.6c-0.4-0.4-0.2-1.6-0.4-2.6c-0.1-1.1-0.4-1.9-1.8-1.9h-3.5v4.6h-1.4V90.7z M164.7,95.6c1.3,0,2.5-0.3,2.5-1.9
				c0-1.1-0.6-1.8-1.9-1.8h-3.6v3.7H164.7z"/>
			<path class="st0" d="M147.2,90.5h7.4v1.2h-6v3.4h5.6v1.2h-5.6v3.7h6v1.2h-7.5V90.5z"/>
			<path class="st0" d="M133,90.7h1.5l5.7,8.7h0v-8.7h1.4v10.8h-1.6l-5.6-8.6h0v8.6H133V90.7z"/>
		</g>
		<path class="st0" d="M194,95.8l-3.8-5.4h1.7l2.7,4.2l2.8-4.2h1.6l-3.9,5.4l0.1,5.4h-1.2"/>
	</g>
</g>
<g>
	<path class="st0" d="M219.3,89.7h7.4v1.2h-6v3.4h5.6v1.2h-5.6v3.7h6v1.2h-7.5V89.7z"/>
	<path class="st0" d="M236.1,94.9l-3.5-5.2h1.7l2.7,4.2l2.8-4.2h1.6l-3.6,5.2l3.8,5.5h-1.7L237,96l-3,4.4h-1.6L236.1,94.9z"/>
	<path class="st0" d="M255.4,92.9c-0.3-1.5-1.5-2.3-3-2.3c-2.6,0-3.6,2.1-3.6,4.4c0,2.5,1.1,4.5,3.7,4.5c1.9,0,3-1.3,3.1-3.1h1.4
		c-0.3,2.7-1.9,4.3-4.7,4.3c-3.3,0-5-2.5-5-5.6c0-3.1,1.8-5.7,5.1-5.7c2.2,0,4.1,1.2,4.4,3.5H255.4z"/>
	<path class="st0" d="M262.6,89.7h1.4v4.6h5.7v-4.6h1.4v10.8h-1.4v-4.9H264v4.9h-1.4V89.7z"/>
	<path class="st0" d="M281,89.7h1.6l4.2,10.8h-1.6l-1.2-3.2h-4.5l-1.2,3.2h-1.5L281,89.7z M279.9,96h3.6l-1.8-5h0L279.9,96z"/>
	<path class="st0" d="M292.4,89.7h1.5l5.7,8.7h0v-8.7h1.4v10.8h-1.6l-5.6-8.6h0v8.6h-1.4V89.7z"/>
	<path class="st0" d="M315.2,99.1c-0.8,1.1-2.2,1.6-3.4,1.6c-3.2,0-5.1-2.6-5.1-5.4c0-3.1,1.7-5.8,5.1-5.8c2.3,0,4.2,1.1,4.6,3.6
		H315c-0.3-1.6-1.6-2.4-3.2-2.4c-2.6,0-3.7,2.3-3.7,4.6c0,2.2,1.3,4.3,3.7,4.3c2.2,0,3.5-1.6,3.4-3.5h-3.4v-1.2h4.7v5.7h-0.9
		L315.2,99.1z"/>
	<path class="st0" d="M322.2,89.7h7.4v1.2h-6v3.4h5.6v1.2h-5.6v3.7h6v1.2h-7.5V89.7z"/>
</g>
<path class="st0" d="M120.3,19h7V31h0.1c1.8-2.6,4.8-4.3,8.5-4.3c6.4,0,9.2,4.5,9.2,10.6v17.1h-7V40c0-3.3-0.1-7.8-4.6-7.8
	c-5.1,0-6.2,5.5-6.2,9v13.2h-7V19z"/>
<path class="st0" d="M203.3,54.4h-6.7v-3.7h-0.1c-2.2,2.6-5.2,4.3-8.9,4.3c-6.4,0-9.2-4.5-9.2-10.6V27.4h7v14.4
	c0,3.3,0.1,7.8,4.6,7.8c5.1,0,6.2-5.5,6.2-9V27.4h7V54.4z"/>
<path class="st0" d="M348.6,27.4h8.3l5.3,8.8l5.2-8.8h7.5l-8.1,12.9l9.1,14.2h-8.4l-6-10.1l-6.1,10.1h-7.7l9.3-14.2L348.6,27.4z"/>
<path class="st0" d="M314,51.5c-2.4,1.3-5.1,2-8.6,2c-8.2,0-13-4.7-13-12.9c0-7.2,3.8-13.2,11.6-13.2c9.2,0,11.9,6.3,11.9,15h-17.2
	c0.3,4,3.1,6.3,7.1,6.3c3.1,0,5.9-1.2,8.3-2.5V51.5z M309.6,38c-0.2-3.1-1.6-5.9-5.3-5.9c-3.6,0-5.5,2.5-5.8,5.9H309.6z"/>
<g>
	<path class="st1" d="M254.3,51.1h-0.1c-1.7,2.9-4.7,4.2-8.2,4.2c-8.1,0-12.1-6.9-12.1-14.5c0-7.3,4-14,12-14c3.2,0,6.3,1.4,8,4h0.1
		V17.2h7.4v37.3h-7.1V51.1z M247.8,32.4c-4.9,0-6.5,4.2-6.5,8.6c0,4.2,1.9,8.7,6.5,8.7c4.9,0,6.4-4.3,6.4-8.7
		C254.2,36.6,252.6,32.4,247.8,32.4z"/>
</g>
<polygon class="st1" points="55.1,58.7 68.7,50.4 62.7,46.7 49,55 35.2,46.6 29.1,50.2 43,58.7 29.4,67 35.4,70.7 49,62.4 
	62.7,70.7 68.7,67 "/>
<g>
	<path class="st1" d="M251.4,67.1h3.7c3.3,0,5.2,1.7,5.2,5.1c0,3.6-1.6,5.6-5.2,5.6h-3.7V67.1z M252.8,76.6h2.4c1,0,3.6-0.3,3.6-4.2
		c0-2.6-1-4.1-3.6-4.1h-2.4V76.6z"/>
	<path class="st1" d="M265.9,66.8h7.4V68h-6v3.4h5.6v1.2h-5.6v3.7h6v1.2h-7.5V66.8z"/>
	<path class="st1" d="M279,67.1h5.1c2,0,3.3,1.1,3.3,2.8c0,1.3-0.6,2.4-1.9,2.7v0c1.2,0.2,1.5,1.2,1.6,2.2c0.1,1,0,2.2,0.6,3h-1.6
		c-0.4-0.4-0.2-1.6-0.4-2.7c-0.2-1-0.4-1.9-1.8-1.9h-3.5v4.6H279V67.1z M283.4,72c1.3,0,2.5-0.3,2.5-1.9c0-1.1-0.6-1.8-1.9-1.8h-3.6
		V72H283.4z"/>
	<path class="st1" d="M293.4,67.1h1.4v10.8h-1.4V67.1z"/>
	<path class="st1" d="M305.9,77.8h-1.6l-3.8-10.8h1.6l3.1,9.3h0l3.1-9.3h1.5L305.9,77.8z"/>
	<path class="st1" d="M319.6,67.1h1.6l4.2,10.8h-1.6l-1.2-3.2h-4.6l-1.2,3.2h-1.5L319.6,67.1z M318.6,73.4h3.7l-1.8-5h0L318.6,73.4z
		"/>
	<path class="st1" d="M334.7,68.3h-3.6v-1.2h8.6v1.2h-3.6v9.6h-1.4V68.3z"/>
	<path class="st1" d="M345.4,67.1h1.4v10.8h-1.4V67.1z"/>
	<path class="st1" d="M357.9,77.8h-1.6l-3.8-10.8h1.6l3.1,9.3h0l3.1-9.3h1.5L357.9,77.8z"/>
	<path class="st1" d="M367.4,67.1h7.4v1.2h-6v3.4h5.6v1.2h-5.6v3.7h6v1.2h-7.5V67.1z"/>
</g>
<path class="st0" d="M120,67.3h1.4v4.6h5.7v-4.6h1.4V78h-1.4v-4.9h-5.7V78H120V67.3z"/>
<path class="st0" d="M142.5,74.2c0,2.7-1.6,4.1-4.2,4.1c-2.8,0-4.4-1.3-4.4-4.1v-6.9h1.4l0,6.9c0,1.6,1.2,2.9,2.8,2.9
	c1.9,0.1,3-1,3-2.9v-6.9h1.4V74.2z"/>
<path class="st0" d="M147.8,67.3h1.5L155,76h0v-8.7h1.4V78h-1.6l-5.6-8.6h0V78h-1.4V67.3z"/>
<path class="st0" d="M169.3,76.7c-0.8,1.1-2.2,1.6-3.4,1.6c-3.2,0-5.1-2.6-5.1-5.4c0-3.1,1.7-5.8,5.1-5.8c2.3,0,4.2,1.1,4.6,3.6H169
	c-0.3-1.6-1.6-2.4-3.2-2.4c-2.6,0-3.7,2.3-3.7,4.6c0,2.2,1.3,4.3,3.7,4.3c2.2,0,3.5-1.6,3.4-3.5h-3.4v-1.2h4.7V78h-0.9L169.3,76.7z"
	/>
<path class="st0" d="M178.6,67.3h1.6l4.2,10.8h-1.6l-1.2-3.2h-4.5l-1.2,3.2h-1.5L178.6,67.3z M177.5,73.6h3.6l-1.8-5h0L177.5,73.6z"
	/>
<path class="st0" d="M188.5,67.3h5.1c2,0,3.3,1.1,3.3,2.8c0,1.3-0.6,2.4-1.9,2.7v0c1.3,0.2,1.5,1.2,1.6,2.2c0.1,1.1,0,2.2,0.6,3
	h-1.6c-0.4-0.4-0.2-1.6-0.4-2.6c-0.1-1.1-0.4-1.9-1.8-1.9h-3.5V78h-1.4V67.3z M192.9,72.2c1.3,0,2.5-0.3,2.5-1.9
	c0-1.1-0.6-1.8-1.9-1.8h-3.6v3.7H192.9z"/>
<path class="st0" d="M201.8,67.3h1.4V78h-1.4V67.3z"/>
<path class="st0" d="M211.6,67.3h1.6l4.2,10.8h-1.6l-1.2-3.2h-4.5l-1.2,3.2h-1.5L211.6,67.3z M210.6,73.6h3.6l-1.8-5h0L210.6,73.6z"
	/>
<path class="st0" d="M221.4,67.3h1.5l5.7,8.7h0v-8.7h1.4V78h-1.6l-5.6-8.6h0V78h-1.4V67.3z"/>
</svg>
