
<svg id="Layer_1" xmlns="http://www.w3.org/2000/svg" viewBox="0 0 421.7 118.5"><style>.st0{fill:#5d5e5e}.st1{fill:#22201f}.st2{fill:#0094b3}</style><linearGradient id="SVGID_1_" gradientUnits="userSpaceOnUse" x1="-72.134" y1="488.64" x2="-71.427" y2="487.933"><stop offset="0" stop-color="#009f47"/><stop offset=".983" stop-color="#1a3926"/></linearGradient><path class="st0" d="M120.5 78.5h1.4v4.7h5.7v-4.7h1.4v10.8h-1.4v-5H122v5h-1.4V78.5zM143 85.5c0 2.7-1.6 4.2-4.2 4.2-2.8 0-4.4-1.3-4.4-4.2v-6.9h1.4v6.9c0 1.9 1.1 3 3 3 1.8 0 2.8-1 2.8-3v-6.9h1.4v6.9zM148.3 78.5h1.5l5.7 8.8v-8.8h1.4v10.8h-1.6l-5.6-8.7v8.7h-1.4V78.5zM169.9 88c-.8 1.1-2.2 1.6-3.5 1.6-3.2 0-5.1-2.6-5.1-5.5 0-3.2 1.7-5.9 5.1-5.9 2.4 0 4.2 1.1 4.6 3.6h-1.4c-.3-1.6-1.6-2.4-3.2-2.4-2.6 0-3.7 2.3-3.7 4.6s1.3 4.3 3.7 4.3c2.2 0 3.5-1.6 3.5-3.5h-3.4v-1.2h4.7v5.7h-.9l-.4-1.3zM179.3 78.5h1.6l4.2 10.8h-1.6l-1.2-3.3h-4.6l-1.2 3.3H175l4.3-10.8zm-1.1 6.4h3.7l-1.8-5-1.9 5zM189.1 78.5h5.1c2 0 3.3 1.1 3.3 2.8 0 1.3-.6 2.4-1.9 2.7 1.3.2 1.5 1.2 1.6 2.2.1 1.1 0 2.2.6 3h-1.6c-.4-.4-.2-1.6-.4-2.7s-.4-2-1.8-2h-3.5v4.6h-1.4V78.5zm4.4 5c1.3 0 2.5-.3 2.5-1.9 0-1.1-.6-1.9-1.9-1.9h-3.6v3.8h3zM202.5 78.5h1.4v10.8h-1.4V78.5zM212.3 78.5h1.6l4.2 10.8h-1.6l-1.2-3.3h-4.6l-1.2 3.3H208l4.3-10.8zm-1 6.4h3.7l-1.8-5-1.9 5zM222.2 78.5h1.5l5.7 8.8v-8.8h1.4v10.8h-1.6l-5.6-8.7v8.7h-1.4V78.5zM246.2 78.5h4.7c2.1 0 3.3 1.2 3.3 3.2s-1.2 3.2-3.3 3.2h-3.3v4.4h-1.4V78.5zm1.4 5.2h2.8c1.6 0 2.4-.7 2.4-2s-.7-2-2.4-2h-2.8v4zM262.3 78.3c3.4 0 5.2 2.7 5.2 5.7 0 2.9-1.7 5.7-5.2 5.7-3.4 0-5.2-2.7-5.2-5.7s1.8-5.7 5.2-5.7zm0 10.1c2.6 0 3.7-2.3 3.7-4.5s-1.1-4.4-3.7-4.4-3.7 2.3-3.7 4.4c0 2.2 1.1 4.5 3.7 4.5zM281.1 89.4h-1.5l-2.5-9.1-2.5 9.1h-1.5l-2.8-10.8h1.5l2.1 9 2.4-9h1.6l2.4 9 2.2-9h1.4l-2.8 10.8zM288.4 78.5h7.4v1.2h-6v3.4h5.6v1.2h-5.6V88h6v1.2h-7.5V78.5zM300.6 78.5h5.1c2 0 3.3 1.1 3.3 2.8 0 1.3-.6 2.4-1.9 2.7 1.3.2 1.5 1.2 1.6 2.2.1 1.1 0 2.2.6 3h-1.6c-.4-.4-.2-1.6-.4-2.7s-.4-2-1.8-2H302v4.6h-1.4V78.5zm4.4 5c1.3 0 2.5-.3 2.5-1.9 0-1.1-.6-1.9-1.9-1.9H302v3.8h3zM322.4 78.5h7.4v1.2h-6v3.4h5.6v1.2h-5.6V88h6.1v1.2h-7.5V78.5zM337.2 83.8l-3.5-5.3h1.7l2.7 4.2 2.8-4.2h1.6l-3.6 5.3 3.8 5.6h-1.8l-2.9-4.5-3 4.5h-1.6l3.8-5.6zM353.6 81.8c-.3-1.5-1.5-2.3-3-2.3-2.6 0-3.7 2.1-3.7 4.4 0 2.5 1.1 4.5 3.7 4.5 1.9 0 3-1.3 3.1-3.1h1.4c-.3 2.7-2 4.3-4.7 4.3-3.3 0-5-2.5-5-5.6 0-3.1 1.8-5.7 5.1-5.7 2.2 0 4.1 1.2 4.4 3.5h-1.3zM359.6 78.5h1.4v4.7h5.7v-4.7h1.4v10.8h-1.4v-5H361v5h-1.4V78.5zM376.4 78.5h1.6l4.2 10.8h-1.6l-1.2-3.3h-4.6l-1.2 3.3h-1.5l4.3-10.8zm-1.1 6.4h3.7l-1.8-5-1.9 5zM385.8 78.5h1.5l5.7 8.8v-8.8h1.4v10.8h-1.6l-5.6-8.7v8.7h-1.4V78.5zM407.8 88c-.8 1.1-2.2 1.6-3.5 1.6-3.2 0-5.1-2.6-5.1-5.5 0-3.2 1.7-5.9 5.1-5.9 2.4 0 4.2 1.1 4.6 3.6h-1.4c-.3-1.6-1.6-2.4-3.2-2.4-2.6 0-3.7 2.3-3.7 4.6s1.3 4.3 3.7 4.3c2.2 0 3.5-1.6 3.5-3.5h-3.4v-1.2h4.7v5.7h-.9l-.4-1.3zM414.2 78.5h7.4v1.2h-6v3.4h5.6v1.2h-5.6V88h6v1.2h-7.5V78.5z"/><g><path class="st1" d="M9.6 86.9l13.7-8.3-6.1-3.7-10 6.1V64L0 68.4v20.1L17.2 99l6.1-3.7zM9.7 31.4L23.3 23l-6-3.7L0 29.8v23.8l7.2-4.4v-12l9.8 6 6-3.7zM90.8 68.7V81l-10.1-6.1-6 3.7L88.4 87l-13.6 8.4 6 3.7 17.1-10.7V64.3z"/><path class="st2" d="M55 59.1l13.6-8.3-6-3.7L49 55.4l-13.9-8.5-6.1 3.7 13.9 8.5-13.6 8.4 6 3.7L49 62.9l13.6 8.3 6-3.7z"/><path class="st1" d="M62.7 102.8L52.5 109V95.7h-7.1v13.1l-10.1-6.1-6 3.7 19.8 12.1 19.7-12zM80.2 19.3l-6 3.7 14 8.4-13.5 8.3 6 3.7 10.1-6.2v16.7l7.1-4.3V29.8zM48.8 0L29.3 11.9l6.1 3.7 10-6.1v12.8h7.1V9.7l9.6 5.9 6.1-3.7z"/></g><g><path class="st2" d="M120.6 29.8h7v12.1h.1c1.8-2.6 4.8-4.3 8.5-4.3 6.4 0 9.2 4.5 9.2 10.7v17.2h-7V50.9c0-3.3-.1-7.8-4.6-7.8-5.1 0-6.2 5.5-6.2 9v13.3h-7V29.8zM203.8 65.4h-6.7v-3.7h-.1c-2.2 2.6-5.2 4.3-8.9 4.3-6.4 0-9.2-4.5-9.2-10.7V38.2h7.1v14.5c0 3.3.1 7.8 4.6 7.8 5.1 0 6.2-5.6 6.2-9V38.2h7.1v27.2zM237.1 38.2h6.7v3.9h.1c1.6-2.6 4.3-4.5 8.4-4.5 8.3 0 11.4 6.7 11.4 14.2 0 7.4-3 14.3-11.5 14.3-3 0-5.5-.7-7.9-3.7h-.1v12.2h-7.1V38.2zm7.1 13.5c0 3.9 1.5 8.8 6.2 8.8 4.6 0 5.9-5.1 5.9-8.8 0-3.6-1.3-8.7-5.8-8.7-4.5.1-6.3 4.9-6.3 8.7zM293.3 38.2h8.3l5.3 8.9 5.2-8.9h7.5l-8.1 12.9 9.2 14.3h-8.4l-6-10.1-6.1 10.1h-7.7l9.3-14.3-8.5-12.9z"/></g></svg>