<?xml version="1.0" encoding="UTF-8"?>
<!DOCTYPE svg PUBLIC "-//W3C//DTD SVG 1.1//EN" "http://www.w3.org/Graphics/SVG/1.1/DTD/svg11.dtd">
<!-- Creator: CorelDRAW -->
<svg xmlns="http://www.w3.org/2000/svg" xml:space="preserve" width="2048px" height="2048px" style="shape-rendering:geometricPrecision; text-rendering:geometricPrecision; image-rendering:optimizeQuality; fill-rule:evenodd; clip-rule:evenodd"
viewBox="0 0 2048 2048"
 xmlns:xlink="http://www.w3.org/1999/xlink">
 <defs>
  <style type="text/css">
   <![CDATA[
    .fil2 {fill:none}
    .fil0 {fill:#424242;fill-rule:nonzero}
    .fil1 {fill:#64B5F6;fill-rule:nonzero}
   ]]>
  </style>
 </defs>
 <g id="Layer_x0020_1">
  <metadata id="CorelCorpID_0Corel-Layer"/>
  <g id="_338798424">
   <path id="_338791008" class="fil0" d="M304.676 859.045l1438.65 0 48.678 0 -19.2484 44.7083 -171.312 397.901c-7.93938,28.761 -21.1488,55.8721 -40.7681,75.4914 -19.3925,19.3925 -44.2347,31.4953 -75.3355,31.4953l-922.676 0c-31.1044,0 -55.9465,-12.098 -75.3426,-31.4918 -19.6134,-19.6146 -32.8205,-46.7221 -40.7622,-75.4973l-171.311 -397.898 -19.2484 -44.7083 48.678 0z"/>
   <path id="_338791056" class="fil1" d="M674.64 1439.99c81.1347,0 146.904,65.7697 146.904,146.904 0,81.1335 -65.7697,146.903 -146.904,146.903 -81.1335,0 -146.903,-65.7697 -146.903,-146.903 0,-81.1347 65.7697,-146.904 146.903,-146.904z"/>
   <path id="_338796312" class="fil1" d="M1373.36 1439.99c81.1335,0 146.903,65.7697 146.903,146.904 0,81.1335 -65.7697,146.903 -146.903,146.903 -81.1347,0 -146.904,-65.7697 -146.904,-146.903 0,-81.1347 65.7697,-146.904 146.904,-146.904z"/>
   <path id="_338794920" class="fil1" d="M966.224 350.691c106.231,0 202.408,43.0618 272.027,112.682 69.6201,69.619 112.682,165.796 112.682,272.027 0,22.9394 -2.14252,45.8681 -6.23741,68.569 -1.39961,7.75985 -3.03189,15.4347 -4.88504,23.0173l-950.219 0c-0.13937,-3.15355 -0.210236,-6.23977 -0.210236,-9.25394 0,-64.1351 26.002,-122.205 68.0339,-164.238 39.88,-39.88 94.1953,-65.3233 154.429,-67.8272 28.128,-66.4819 74.4154,-123.424 132.647,-164.595 62.7,-44.3315 139.199,-70.3808 221.732,-70.3808z"/>
   <path id="_338794248" class="fil1" d="M1275.47 456.092c76.1044,2.88662 149.428,33.3721 202.329,80.954 51.6591,46.4634 87.8221,109.899 99.7879,181.596 19.4894,10.0299 36.2693,24.5634 48.9603,42.2233 13.7138,19.0819 22.6961,41.6977 25.2284,66.1205l-279.037 0 -0.0614174 -0.00236221 0.0354331 -0.157087 0.0248032 -0.112205 0.0602363 -0.270473 0.00236221 -0.00590552 0.0578741 -0.263386 0.0283465 -0.125197 0.0318898 -0.144095 0.0543308 -0.245669 0.00590552 -0.0248032 0.0590552 -0.269292 0.0212599 -0.0944883 0.0389764 -0.175984 0.0472441 -0.212599 0.011811 -0.056693 0.0590552 -0.270473 0.0141732 -0.0625985 0.0448819 -0.207874 0.0389764 -0.180709 0.0188977 -0.0885827 0.0590552 -0.270473 0.00708662 -0.0307087 0.0507874 -0.239764 0.0330709 -0.15 0.0259843 -0.119291 0.0578741 -0.269292 0 -0.0011811 0.0578741 -0.270473 0.0248032 -0.11811 0.0330709 -0.152362 0.0507874 -0.237402 0.00590552 -0.0330709 0.0578741 -0.270473 0.0177165 -0.0862205 0.0389764 -0.184252 0.0437008 -0.205512 0.0129921 -0.0637796 0.056693 -0.270473 0.011811 -0.0555119 0.0448819 -0.216142 0.0366142 -0.173622 0.0200788 -0.0968505 0.056693 -0.270473 0.00472441 -0.022441 0.0507874 -0.248032 0.0295276 -0.142913 0.0259843 -0.127559 0.0543308 -0.262205 0.0011811 -0.00826772 0.0555119 -0.270473 0.0236221 -0.111024 0.0318898 -0.16063 0.0472441 -0.230315 0.00826772 -0.0401575 0.0543308 -0.270473 0.0165354 -0.0791339 0.0389764 -0.19252 0.0401575 -0.198425 0.0141732 -0.0720473 0.0543308 -0.271654 0.00944883 -0.0472441 0.0448819 -0.223229 0.0330709 -0.166536 0.0212599 -0.105118 0.0531496 -0.270473 0.00354331 -0.0153543 0.0507874 -0.256299 0.0259843 -0.134646 0.0271654 -0.135827 0.0496063 -0.255118 0.00354331 -0.0165354 0.0531496 -0.270473 0.0200788 -0.103937 0.0330709 -0.167717 0.0437008 -0.223229 0.00944883 -0.0484252 0.0519685 -0.271654 0.0141732 -0.0708662 0.0389764 -0.199606 0.0366142 -0.191339 0.0153543 -0.080315 0.0519685 -0.271654 0.00708662 -0.0389764 0.0448819 -0.232677 0.0295276 -0.159449 0.0212599 -0.112205 0.0519685 -0.271654 0.0011811 -0.00708662 0.0507874 -0.263386 0.0236221 -0.12874 0.0271654 -0.142913 0.046063 -0.248032 0.00472441 -0.0236221 0.0507874 -0.271654 0.0177165 -0.0968505 0.0330709 -0.175984 0.0401575 -0.214961 0.0106299 -0.056693 0.0496063 -0.271654 0.011811 -0.0637796 0.0377953 -0.207874 0.034252 -0.183071 0.0165354 -0.0885827 0.0496063 -0.271654 0.00590552 -0.0318898 0.0437008 -0.239764 0.0271654 -0.152362 0.0212599 -0.120473 0.0496063 -0.271654c4.41851,-24.4949 6.74528,-49.3548 6.74528,-74.2489 0,-1.5189 -0.0106299,-3.03544 -0.0283465,-4.55197l-0.0165354 -1.35709c-0.0177165,-1.31929 -0.0425197,-2.63858 -0.0732284,-3.95788l-0.0129921 -0.641339c-0.0377953,-1.53543 -0.0862205,-3.06733 -0.141732,-4.6004l-0.0425197 -1.09488c-0.0472441,-1.23898 -0.101575,-2.47677 -0.159449,-3.71339l-0.0519685 -1.11024c-0.0744095,-1.47874 -0.155906,-2.95866 -0.245669,-4.43504l-0.0708662 -1.11969c-0.0814961,-1.27559 -0.167717,-2.54764 -0.258662,-3.81969l-0.0661418 -0.907087c-0.114567,-1.52362 -0.23504,-3.04607 -0.364961,-4.56733l-0.0850394 -0.960237c-0.105118,-1.19528 -0.216142,-2.39173 -0.33189,-3.58583l-0.131102 -1.35c-0.147638,-1.47756 -0.301181,-2.95512 -0.465355,-4.43032l-0.080315 -0.698032c-0.146457,-1.30512 -0.3,-2.60906 -0.458268,-3.91063l-0.145276 -1.18465c-0.183071,-1.46929 -0.373229,-2.93504 -0.571654,-4.39961l-0.112205 -0.810237c-0.177165,-1.29095 -0.361418,-2.57953 -0.551575,-3.86811l-0.157087 -1.05473c-0.22441,-1.49646 -0.452363,-2.99173 -0.693308,-4.48347l-0.0141732 -0.090945 -0.00354331 -0.0212599c-0.240945,-1.49055 -0.491339,-2.97992 -0.748819,-4.46575l-0.199606 -1.14685c-0.232677,-1.32402 -0.470079,-2.64685 -0.714567,-3.96851l-0.112205 -0.611811c-0.275197,-1.47284 -0.558662,-2.94449 -0.850394,-4.4126l-0.225591 -1.12559c-0.246851,-1.22953 -0.499607,-2.45669 -0.757087,-3.68268l-0.185433 -0.88819c-0.311811,-1.46811 -0.634252,-2.9315 -0.961418,-4.3937l-0.216142 -0.957875c-0.275197,-1.21536 -0.5563,-2.42953 -0.842127,-3.64252l-0.253937 -1.07599c-0.340158,-1.42559 -0.687402,-2.85 -1.04291,-4.27087l-0.270473 -1.06417c-0.283465,-1.12323 -0.572835,-2.2441 -0.865749,-3.3626l-0.343701 -1.31102c-0.369685,-1.3937 -0.744095,-2.78504 -1.12795,-4.17284l-0.255118 -0.910631c-0.33189,-1.19173 -0.669686,-2.3811 -1.01221,-3.57048l-0.33189 -1.14685c-0.422835,-1.44921 -0.850394,-2.89843 -1.28976,-4.3441l-0.056693 -0.18189c-0.420473,-1.38071 -0.848032,-2.75906 -1.28268,-4.13504l-0.34252 -1.07953c-0.446457,-1.40197 -0.89882,-2.80276 -1.35945,-4.2l-0.0401575 -0.122835 -0.0141732 -0.0425197c-0.470079,-1.42323 -0.950788,-2.8441 -1.4374,-4.26142l-0.380315 -1.10197c-0.434646,-1.25551 -0.875198,-2.51103 -1.32165,-3.76418l-0.196063 -0.555119c-0.499607,-1.39606 -1.00866,-2.78858 -1.5248,-4.17874l-0.418111 -1.12087c-0.438189,-1.17284 -0.882284,-2.34567 -1.3311,-3.51496l-0.302362 -0.790158c-0.533859,-1.38307 -1.07717,-2.76378 -1.62638,-4.14095l-0.42874 -1.06536c-0.426378,-1.05945 -0.857481,-2.1189 -1.29213,-3.17481l-0.514961 -1.24843c-0.553937,-1.3311 -1.1126,-2.66221 -1.68071,-3.9874l-0.370866 -0.858662c-0.497244,-1.15394 -0.998032,-2.30551 -1.50591,-3.45473l-0.438189 -0.993308c-0.605906,-1.36299 -1.21772,-2.72244 -1.8378,-4.07835l-0.297638 -0.646063c-0.561024,-1.22126 -1.12913,-2.44016 -1.70315,-3.65551l-0.369685 -0.785434c-0.668504,-1.41024 -1.34291,-2.81929 -2.02795,-4.22244l-0.0755906 -0.153543c-0.649607,-1.32874 -1.30748,-2.65394 -1.97126,-3.97677l-0.451181 -0.897638c-0.664961,-1.31811 -1.33701,-2.63386 -2.01614,-3.94488l-0.0673229 -0.132284 -0.0307087 -0.0590552c-0.687402,-1.32402 -1.38307,-2.64449 -2.08465,-3.96142l-0.588189 -1.09724c-0.618898,-1.1563 -1.24488,-2.30906 -1.87677,-3.45945l-0.264567 -0.485433c-0.725197,-1.31811 -1.45984,-2.6315 -2.2004,-3.94252l-0.553937 -0.975591c-0.634252,-1.11614 -1.27323,-2.22874 -1.91693,-3.33898l-0.393307 -0.677953c-0.650788,-1.11732 -1.3063,-2.23229 -1.9689,-3.3437l-0.0177165 -0.0295276 -0.120473 -0.193701c-13.9595,-23.3953 -30.2799,-45.5185 -48.8221,-66.0272z"/>
   <rect id="_338794872" class="fil2" width="2048" height="2048"/>
  </g>
 </g>
</svg>
