<?xml version="1.0" encoding="UTF-8"?>
<!DOCTYPE svg PUBLIC "-//W3C//DTD SVG 1.1//EN" "http://www.w3.org/Graphics/SVG/1.1/DTD/svg11.dtd">
<!-- Creator: CorelDRAW -->
<svg xmlns="http://www.w3.org/2000/svg" xml:space="preserve" width="2048px" height="2048px" style="shape-rendering:geometricPrecision; text-rendering:geometricPrecision; image-rendering:optimizeQuality; fill-rule:evenodd; clip-rule:evenodd"
viewBox="0 0 2048 2048"
 xmlns:xlink="http://www.w3.org/1999/xlink">
 <defs>
  <style type="text/css">
   <![CDATA[
    .fil1 {fill:none}
    .fil2 {fill:#424242}
    .fil4 {fill:#64B5F6}
    .fil0 {fill:#424242;fill-rule:nonzero}
    .fil3 {fill:#64B5F6;fill-rule:nonzero}
   ]]>
  </style>
 </defs>
 <g id="Layer_x0020_1">
  <metadata id="CorelCorpID_0Corel-Layer"/>
  <g id="_338798688">
   <polygon id="_338793216" class="fil0" points="1285.33,1603.95 1285.33,1759.36 1028.48,1759.36 1028.48,1603.95 "/>
   <polygon id="_338798112" class="fil0" points="857.513,1727.99 1456.3,1727.99 1456.3,1791.99 857.513,1791.99 "/>
   <rect id="_338798208" class="fil1" width="2048" height="2048"/>
   <path id="_338797512" class="fil2" d="M1796.2 1632.08l-1252.24 0 -36.2351 0 4.48465 -35.876 99.5162 -796.092 1080.47 0 104.001 831.968zm-388.715 -255.244l308.463 0 25.9063 207.241 -314.718 0 -19.6512 -207.241zm-428.902 -528.722l-19.7906 208.721 -330.808 0 26.0918 -208.721 324.507 0zm-47.0989 496.719l-339.501 0 32.0008 -255.995 331.773 0 -24.2729 255.995zm79.0276 -496.719l314.912 0 19.7917 208.721 -354.495 0 19.7917 -208.721zm346.84 0l292.503 0 26.0918 208.721 -298.804 0 -19.7906 -208.721zm322.595 240.724l32.0008 255.995 -307.497 0 -24.274 -255.995 299.77 0zm-307.425 255.995l-409.109 0 24.2729 -255.995 360.564 0 24.2729 255.995zm-444.072 32.0032l-19.6512 207.241 -346.722 0 25.9973 -207.969 340.376 0.72756zm31.9288 0l415.178 0 19.6512 207.241 -454.48 0 19.6512 -207.241z"/>
   <path id="_338792328" class="fil3" d="M562.907 932.692c-33,-19.6016 -64.4103,-46.3796 -84.5174,-77.7615 -24.6,-38.3953 -38.4095,-83.5111 -38.4095,-130.636 0,-67.1008 27.3107,-127.854 71.4662,-171.832 44.1544,-43.9784 105.154,-71.1792 172.526,-71.1792 67.3713,0 128.371,27.2008 172.525,71.1792 44.1532,43.9772 71.4662,104.731 71.4662,171.832 0,14.6988 -1.35473,29.367 -4.0252,43.8189l-64.3347 0 -276.123 0 -11.7862 94.2804 -8.78741 70.2981z"/>
   <polygon id="_338795208" class="fil3" points="445.641,555.56 355.157,465.076 400.407,419.826 490.891,510.31 "/>
   <polygon id="_338793960" class="fil3" points="415.962,768.46 287.998,768.46 287.998,704.458 415.962,704.458 "/>
   <polygon id="_338793168" class="fil3" points="1087.58,768.46 959.617,768.46 959.617,704.458 1087.58,704.458 "/>
   <g>
    <polygon id="_338794152" class="fil3" points="499.117,949.398 408.632,1039.88 363.382,994.632 453.866,904.148 "/>
    <polygon id="_338798136" class="fil3" points="996.65,451.864 906.166,542.348 860.916,497.098 951.4,406.614 "/>
   </g>
   <polygon id="_338796816" class="fil3" points="703.791,320.668 703.791,448.633 639.789,448.633 639.789,320.668 "/>
   <path id="_338792400" class="fil4" d="M1425.07 1392.84l16.6169 175.243 282.04 0 -21.9059 -175.243 -276.751 0zm-464.078 -528.722l-292.796 0 -22.0914 176.723 298.131 0 16.7563 -176.723zm-44.0646 464.72l21.2386 -223.996 -300.062 0 -28.0004 223.996 306.823 0zm108.135 -464.72l-16.7575 176.723 319.32 0 -16.7575 -176.723 -285.805 0zm349.875 0l16.7563 176.723 266.126 0 -22.0914 -176.723 -260.791 0zm290.883 240.724l-268.058 0 21.2398 223.996 274.819 0 -28.0004 -223.996zm-310.889 223.996l-21.2386 -223.996 -331.457 0 -21.2386 223.996 373.934 0zm-444.072 64.0016l-308.234 0 0 -4.17402 -22.428 179.417 314.045 0 16.6169 -175.243zm64.0701 0l-16.6169 175.243 419.305 0 -16.6169 -175.243 -386.071 0z"/>
  </g>
 </g>
</svg>
