<?xml version="1.0" encoding="UTF-8"?>
<!DOCTYPE svg PUBLIC "-//W3C//DTD SVG 1.1//EN" "http://www.w3.org/Graphics/SVG/1.1/DTD/svg11.dtd">
<!-- Creator: CorelDRAW -->
<svg xmlns="http://www.w3.org/2000/svg" xml:space="preserve" width="2048px" height="2048px" style="shape-rendering:geometricPrecision; text-rendering:geometricPrecision; image-rendering:optimizeQuality; fill-rule:evenodd; clip-rule:evenodd"
viewBox="0 0 2048 2048"
 xmlns:xlink="http://www.w3.org/1999/xlink">
 <defs>
  <style type="text/css">
   <![CDATA[
    .fil0 {fill:none}
    .fil1 {fill:#424242;fill-rule:nonzero}
    .fil2 {fill:#64B5F6;fill-rule:nonzero}
   ]]>
  </style>
 </defs>
 <g id="Layer_x0020_1">
  <metadata id="CorelCorpID_0Corel-Layer"/>
  <g id="_338795136">
   <rect id="_338799024" class="fil0" width="2048" height="2048"/>
   <path id="_338792448" class="fil1" d="M1285.28 671.99l27.5209 159.999 -198.011 0 -90.789 -46.2048 -90.789 46.2048 -141 0 161.289 -82.0843 -148.005 -75.3249 -23.9504 157.409 -64.6949 0 24.3437 -159.999 200.214 0 82.5934 42.0343 82.5946 -42.0343 178.684 0zm-62.6623 12.7122l-128.115 65.2028 152.698 77.7119 -24.5823 -142.915zm-390.652 -428.703l354.841 0 26.9197 0 4.58032 26.6256 17.4354 101.363 -64.8485 0 -11.0067 -63.9875 -300.442 0 -9.73583 63.9875 -64.6961 0 15.3272 -100.739 4.14685 -27.2504 27.4784 0z"/>
   <path id="_338792736" class="fil1" d="M683.982 1473.22l273.529 -191.353 -220.903 -154.536 -52.6264 345.888zm153.32 -353.231l175.804 122.986 175.804 -122.986 173.428 0 109.162 634.634 -63 10.7504 -32.8512 -190.99 -362.543 -253.623 -342.369 239.51 -31.1114 204.479 -63.2504 -9.50079 96.6544 -635.259 164.273 0zm460.467 1.62874l-229.069 160.25 291.738 204.09 -62.6693 -364.34z"/>
   <path id="_338793432" class="fil2" d="M479.963 863.989l1088.07 0 46.5107 0 -16.761 43.5012 -61.6512 160.001 -7.89922 20.5004 -21.8504 0 -960.029 0 -21.3036 0 -8.19686 -19.7504 -66.3945 -160.001 -18.3626 -44.2512 47.863 0zm107.765 64.0016l108.354 59.3552 101.209 -59.3552 -209.563 0zm335.595 0l100.676 59.0434 100.677 -59.0434 -201.353 0zm327.386 0l101.067 59.2725 106.408 -59.2725 -207.475 0zm252.303 48.0473l-86.0823 47.9516 67.6064 0 18.476 -47.9516zm-214.644 47.9516l-100.675 -59.0422 -100.675 59.0422 201.35 0zm-327.386 0l-100.675 -59.0422 -100.675 59.0422 201.35 0zm-330.736 0l-80.9942 -44.367 18.411 44.367 62.5831 0z"/>
   <path id="_338794680" class="fil2" d="M543.963 415.988l960.001 0 47.1048 0 -17.4791 43.7504 -63.926 160.001 -8.09174 20.2512 -21.5339 0 -832.075 0 -21.5752 0 -8.0504 -20.126 -63.9993 -160.001 -17.5488 -43.8756 47.1744 0zm81.2741 149.248l145.171 -85.2461 -179.269 0 34.0985 85.2461zm279.097 -85.2461l119.665 60.2611 119.666 -60.2611 -239.33 0zm374.918 0l144.762 82.206 32.8441 -82.206 -177.606 0zm39.8162 95.9989l-105.325 -59.8111 -118.772 59.8111 224.097 0zm-366.042 0l-118.536 -59.6918 -101.653 59.6918 220.188 0z"/>
  </g>
 </g>
</svg>
