<?xml version="1.0" encoding="UTF-8"?>
<!DOCTYPE svg PUBLIC "-//W3C//DTD SVG 1.1//EN" "http://www.w3.org/Graphics/SVG/1.1/DTD/svg11.dtd">
<!-- Creator: CorelDRAW -->
<svg xmlns="http://www.w3.org/2000/svg" xml:space="preserve" width="2048px" height="2048px" style="shape-rendering:geometricPrecision; text-rendering:geometricPrecision; image-rendering:optimizeQuality; fill-rule:evenodd; clip-rule:evenodd"
viewBox="0 0 2048 2048"
 xmlns:xlink="http://www.w3.org/1999/xlink">
 <defs>
  <style type="text/css">
   <![CDATA[
    .fil1 {fill:none}
    .fil2 {fill:#64B5F6}
    .fil0 {fill:#424242;fill-rule:nonzero}
   ]]>
  </style>
 </defs>
 <g id="Layer_x0020_1">
  <metadata id="CorelCorpID_0Corel-Layer"/>
  <g id="_338776712">
   <path id="_338779424" class="fil0" d="M378.489 285.298c16.4788,-17.7378 39.3177,-29.3008 64.8178,-29.3008l1161.19 0c25.5,0 48.339,11.563 64.8178,29.3008 16.4339,17.6894 26.654,41.8571 26.654,66.7134 0,24.9166 -10.2118,49.102 -26.6339,66.815 -16.4717,17.7697 -39.3201,29.3327 -64.8378,29.3327l-36.652 0 0 320.013 36.652 0c25.5106,0 48.365,11.5382 64.8532,29.2914 16.4126,17.6705 26.6185,41.8146 26.6185,66.7394 0,24.8693 -10.2083,48.965 -26.6292,66.5835 -16.5047,17.7106 -39.3579,29.2311 -64.8426,29.2311l-36.652 0 0 160.185 36.652 0c25.4977,0 48.3662,11.5004 64.8768,29.2264 16.4008,17.6043 26.5949,41.6811 26.5949,66.6178 0,24.8669 -10.2095,48.9685 -26.6303,66.5953 -16.5024,17.7118 -39.3532,29.237 -64.8414,29.237l-36.652 0 0 287.845 36.652 0c25.4965,0 48.3473,11.8099 64.8709,29.8382 16.3984,17.8878 26.6008,42.2492 26.6008,67.0418 0,24.8929 -10.2331,48.8835 -26.7,66.4382 -16.487,17.5748 -39.3213,28.9607 -64.7717,28.9607l-1161.19 0c-25.4504,0 -48.2847,-11.3858 -64.7717,-28.9607 -16.4669,-17.5547 -26.7,-41.5453 -26.7,-66.4382 0,-24.7925 10.2024,-49.154 26.6008,-67.0418 16.5236,-18.0284 39.3744,-29.8382 64.8709,-29.8382l36.652 0 0 -287.845 -36.652 0c-25.4882,0 -48.339,-11.5252 -64.8414,-29.237 -16.4209,-17.6268 -26.6303,-41.7284 -26.6303,-66.5953 0,-24.9366 10.1941,-49.0134 26.5949,-66.6178 16.5106,-17.726 39.3792,-29.2264 64.8768,-29.2264l36.652 0 0 -160.185 -36.652 0c-25.4847,0 -48.3378,-11.5205 -64.8426,-29.2311 -16.4209,-17.6185 -26.6292,-41.7142 -26.6292,-66.5835 0,-24.9248 10.2059,-49.0689 26.6185,-66.7394 16.4882,-17.7532 39.3425,-29.2914 64.8532,-29.2914l36.652 0 0 -320.013 -36.652 0c-25.5177,0 -48.3662,-11.563 -64.8378,-29.3327 -16.4221,-17.713 -26.6339,-41.8985 -26.6339,-66.815 0,-24.8563 10.2201,-49.0241 26.654,-66.7134zm458.716 851.783c-19.3784,113.151 16.0654,206.907 186.77,206.907 46.9252,0 83.7213,-6.41457 111.957,-17.9374 49.5544,-20.224 72.613,-58.1233 78.4182,-104.956 6.54567,-52.8095 -7.0819,-117.139 -30.0496,-182.323 -43.5969,-123.726 -120.219,-248.656 -160.337,-309.77 -7.03819,10.7528 -15.2102,23.4921 -24.163,37.8957 -55.6536,89.4308 -140.619,241.86 -162.595,370.185z"/>
   <rect id="_338778752" class="fil1" width="2048" height="2048"/>
   <path id="_338778488" class="fil2" d="M1024.05 788.512c-39.4335,63.7689 -76.2544,130.81 -106.022,199.564 -21.1205,48.7807 -40.2886,101.895 -49.2827,154.407 -6.18189,36.0981 -8.12363,80.5229 10.963,113.343 27.9154,48.0048 94.2544,56.1626 144.267,56.1626 32.5311,0 69.4524,-3.15355 99.8658,-15.5646 36.3142,-14.8205 54.0166,-41.0563 58.7528,-79.2662 6.59646,-53.2193 -10.898,-117.873 -28.474,-167.752 -31.3996,-89.1107 -79.0713,-178.996 -130.07,-260.894z"/>
  </g>
 </g>
</svg>
