<?xml version="1.0" encoding="UTF-8"?>
<!DOCTYPE svg PUBLIC "-//W3C//DTD SVG 1.1//EN" "http://www.w3.org/Graphics/SVG/1.1/DTD/svg11.dtd">
<!-- Creator: CorelDRAW -->
<svg xmlns="http://www.w3.org/2000/svg" xml:space="preserve" width="2048px" height="2048px" style="shape-rendering:geometricPrecision; text-rendering:geometricPrecision; image-rendering:optimizeQuality; fill-rule:evenodd; clip-rule:evenodd"
viewBox="0 0 2048 2048"
 xmlns:xlink="http://www.w3.org/1999/xlink">
 <defs>
  <style type="text/css">
   <![CDATA[
    .fil0 {fill:none}
    .fil1 {fill:#424242}
    .fil2 {fill:#64B5F6}
   ]]>
  </style>
 </defs>
 <g id="Layer_x0020_1">
  <metadata id="CorelCorpID_0Corel-Layer"/>
  <g id="_339264544">
   <rect id="_339269704" class="fil0" width="2048" height="2048"/>
   <path id="_339259696" class="fil1" d="M1759.67 735.99l0 768.001 0 32.0008 -32.0008 0 -1439.7 0 -32.0008 0 0 -32.0008 0 -768.001 1503.71 0zm-1311.7 415.93c-18.1807,0 -32.9197,-14.2973 -32.9197,-31.9323 0,-17.6351 14.739,-31.9323 32.9197,-31.9323l192 0c18.1807,0 32.9197,14.2973 32.9197,31.9323 0,17.6351 -14.739,31.9323 -32.9197,31.9323l-192 0zm1056.53 61.3878c0,17.6728 -14.328,32.0008 -32.0008,32.0008 -17.6728,0 -32.0008,-14.328 -32.0008,-32.0008l0 -61.3878 -63.4099 0c-18.1807,0 -32.9197,-14.2973 -32.9197,-31.9323 0,-17.6351 14.739,-31.9323 32.9197,-31.9323l63.4099 0 0 -61.3867c0,-17.6728 14.328,-32.0008 32.0008,-32.0008 17.6728,0 32.0008,14.328 32.0008,32.0008l0 61.3867 64.5886 0c18.1807,0 32.9197,14.2973 32.9197,31.9323 0,17.6351 -14.739,31.9323 -32.9197,31.9323l-64.5886 0 0 61.3878z"/>
   <path id="_339270424" class="fil2" d="M1195.13 703.991l20.504 -0.0484252 0 -31.9559 0 -32.0008 32.0008 0 96.0013 0 32.0008 0 0 32.0008 0 31.7551 31.5272 0 0 -25.8319c0,-65.0634 37.0441,-105.437 85.0123,-122.999 17.8524,-6.53504 37.3028,-9.67796 56.8182,-9.54213 19.4126,0.134646 38.8689,3.5126 56.8394,10.0158 50.1402,18.1477 89.778,59.6658 89.778,122.525l0 25.8319 32.0587 0 32.0008 0 0 0.249213 -564.541 0z"/>
   <path id="_339264640" class="fil2" d="M820.54 703.991l-20.504 -0.0484252 0 -31.9559 0 -32.0008 -32.0008 0 -96.0013 0 -32.0008 0 0 32.0008 0 31.7551 -31.5272 0 0 -25.8319c0,-65.0634 -37.0441,-105.437 -85.0123,-122.999 -17.8524,-6.53504 -37.3028,-9.67796 -56.8182,-9.54213 -19.4126,0.134646 -38.8689,3.5126 -56.8394,10.0158 -50.1402,18.1477 -89.778,59.6658 -89.778,122.525l0 25.8319 -32.0587 0 -32.0008 0 0 0.249213 564.541 0z"/>
   <rect id="_339265408" class="fil2" x="831.963" y="640.033" width="160.003" height="63.9567"/>
   <rect id="_339254584" class="fil2" x="1023.96" y="640.033" width="160.003" height="63.9567"/>
  </g>
 </g>
</svg>
